<svg xmlns="http://www.w3.org/2000/svg" xmlns:xlink="http://www.w3.org/1999/xlink" width="404.864" height="580.953" viewBox="0 0 404.864 580.953">
  <defs>
    <clipPath id="clip-path">
      <rect id="_1749846261544" data-name="1749846261544" width="400" height="580.953" rx="8" transform="translate(-4.864)" fill="#e3b9a9"/>
    </clipPath>
  </defs>
  <g id="Grupo_1178424" data-name="Grupo 1178424" transform="translate(4.864)">
    <g id="Grupo_1178423" data-name="Grupo 1178423">
      <path id="_1749846261544-2" data-name="1749846261544" d="M392,0H8C3.582,0,0,5.055,0,11.29V544.663c0,6.235,3.582,11.29,8,11.29H392c4.418,0,8-5.055,8-11.29V11.29C400,5.055,396.418,0,392,0Z" transform="translate(0 25)" fill="#fbe7b9"/>
      <g id="Enmascarar_grupo_1098827" data-name="Enmascarar grupo 1098827" clip-path="url(#clip-path)">
        <g id="Grupo_1178187" data-name="Grupo 1178187" transform="translate(-114.728 0)">
          <path id="Trazado_1034647" data-name="Trazado 1034647" d="M2032.838,799.249a23.435,23.435,0,0,1,16.179,3.185c5.2,2.934,9.891,6.622,15.424,8.8,4.946,2.18,10.479,2.431,15.34,4.862,6.455,3.1,10.395,10.059,10.73,17.017.083,5.281-3.186,9.891-7.042,13.245-1.677,1.174-1.76,3.353-2.263,5.2-1.341,5.281-4.946,9.64-8.885,13.245a87.392,87.392,0,0,0,.838-12.406,47.356,47.356,0,0,1-37.219-4.191,152.738,152.738,0,0,1-16.765-11.568c.922,6.287,1.174,12.909-1.006,19.028-1.341,3.94-4.61,6.706-7.041,10.059,4.946,2.766,9.556,6.2,14.67,8.8,3.269-2.012,7.125-3.688,11.065-2.85a11.753,11.753,0,0,1,9.22,7.377,17.238,17.238,0,0,1,7.461.419c2.347-1.677,4.611-3.688,7.544-4.024,2.85-.419,5.617.419,8.215,1.425,2.012,1.257,4.443,2.515,5.449,4.862a31.548,31.548,0,0,0-3.018,6.622c-1.174,3.772-4.611,6.371-8.131,7.712-3.856.754-8.3-.168-10.562-3.688-2.263-2.934-1.257-6.79-.838-10.143a11.917,11.917,0,0,0-5.7-.335c-1.341,3.688-3.269,7.46-6.957,9.388-4.778,2.682-11.736,1.425-14.585-3.6-1.845-3.018-1.258-6.706-1.006-10.059-4.527-3.018-9.137-5.952-13.664-8.969-1.174.587-2.347,1.173-3.437,1.844-.587-.671-1.09-1.425-1.593-2.1-1.09-2.85-2.264-6.287-5.365-7.461-2.934-1.257-5.868.335-8.132,2.179l-.5.419c-1.257-11.233-1.257-22.8,2.264-33.7,2.18-6.622,7.209-14,15-14,4.862-9.053,14.5-14.586,24.31-16.6m-1.677,75.276c-5.867,2.012-6.957,11.233-1.592,14.418,5.952,4.024,14.921-1.928,13.747-8.969-1.174-5.114-7.544-7.377-12.155-5.449m23.807,16.011c2.1,3.521,7.461,4.191,10.478,1.509,4.359-2.347,6.539-8.718,2.766-12.574a9.764,9.764,0,0,0-8.718-1.006C2054.885,880.141,2052.705,886.177,2054.968,890.536Z" transform="translate(-1786.725 -798.907)" fill="#1d1b1c" stroke="#1d1b1c" stroke-width="0.094"/>
          <path id="Trazado_1034648" data-name="Trazado 1034648" d="M2109.3,1001.443a141.862,141.862,0,0,0,16.765,11.568,47.4,47.4,0,0,0,37.219,4.191,77.093,77.093,0,0,1-.839,12.406c-.335,2.18-.754,4.359-1.173,6.539-3.688-3.018-10.646-3.856-13.747.335.587,2.934,4.024,1.844,6.119,1.928a11.2,11.2,0,0,1,6.371,1.258c.084.587.251,1.76.335,2.263l-.922-.335c-2.6-1.006-5.448-1.844-8.215-1.425-2.933.252-5.281,2.347-7.544,4.024a16.1,16.1,0,0,0-7.46-.419c-1.593-3.856-5.03-6.957-9.221-7.377-3.94-.754-7.712.922-11.064,2.85-5.03-2.683-9.641-6.036-14.67-8.8,2.431-3.269,5.7-6.036,7.042-10.059,2.179-6.035,1.927-12.658,1.006-18.944m7.879,28c-1.257.5-4.191,1.09-3.1,3.018,3.521.335,7.125.084,10.478,1.257,2.515.671,5.114,2.431,7.712,1.257,1.509-.335,1.257-2.347.167-3.018C2128.076,1028.854,2122.292,1027.6,2117.179,1029.441Z" transform="translate(-1876.85 -963.715)" fill="#faa987" stroke="#faa987" stroke-width="0.094"/>
          <path id="Trazado_1034649" data-name="Trazado 1034649" d="M1984,1131.71c2.263-1.844,5.2-3.437,8.131-2.179,3.186,1.173,4.359,4.527,5.365,7.461.5,3.186.42,6.371,1.09,9.472.838.252,1.676.419,2.515.671.587-3.269,1.09-6.539,1.593-9.808,4.527,3.018,9.137,5.952,13.664,8.969-.252,3.353-.839,7.042,1.006,10.059,2.766,4.946,9.724,6.287,14.586,3.6,3.688-1.844,5.532-5.7,6.958-9.389a11.918,11.918,0,0,1,5.7.335c-.419,3.353-1.341,7.209.838,10.143,2.18,3.437,6.706,4.359,10.562,3.688-1.174,4.778-3.521,9.137-5.868,13.5-4.61,7.88-10.981,15.592-20.118,18.19-11.233,1.593-22.549-3.353-30.094-11.568-3.856-3.6-5.868-8.55-8.718-12.909-.251,4.359,1.76,8.466,3.185,12.49a60.376,60.376,0,0,0,14.754,22.214,28.581,28.581,0,0,0,12.658,7.209,64.46,64.46,0,0,1-4.946,5.784,7.5,7.5,0,0,1-.838.754c-.838-.084-1.677-.084-2.515-.084l-.5-.335a108.5,108.5,0,0,1-28.92-23.471c-1.341-1.844-3.688-3.856-2.682-6.371,1.844-3.269,2.766-6.957,3.856-10.562,1.425-5.029,3.018-10.059,4.107-15.256.419-2.012.587-4.024.839-5.952a7.833,7.833,0,0,1-1.258-.5c-3.185-1.341-5.281-4.443-6.37-7.628-2.179-6.035-2.263-13.161,1.425-18.526m.838,5.616c1.425-.168,3.437-1.844,4.611-.251a7.087,7.087,0,0,1,2.012,5.7c-1.174,1.593-3.856,2.6-3.269,5.03a5.12,5.12,0,0,0,4.191,5.03c-.586-1.844-1.928-3.353-2.6-5.114-.419-1.928,1.928-2.1,3.1-2.85.587-3.6-.084-7.963-3.437-10.059-2.012-1.174-3.856.754-4.611,2.515m33.782,34.453c1.928,4.778,7.293,7.041,12.071,7.963,2.012.168,4.611,1.174,6.12-.587-3.688-.755-7.628-1.09-11.065-2.766C2023.147,1175.216,2021.387,1172.785,2018.62,1171.779Z" transform="translate(-1779.045 -1067.576)" fill="#faa785" stroke="#faa785" stroke-width="0.094"/>
          <path id="Trazado_1034650" data-name="Trazado 1034650" d="M2172.163,1148a16.654,16.654,0,0,1,15.256,2.6c1.089.67,1.341,2.682-.168,3.018-2.6,1.174-5.2-.671-7.712-1.257-3.353-1.257-6.958-1.006-10.478-1.257C2167.972,1149.093,2170.906,1148.506,2172.163,1148Z" transform="translate(-1931.833 -1082.276)" fill="#161514" stroke="#161514" stroke-width="0.094"/>
          <path id="Trazado_1034651" data-name="Trazado 1034651" d="M2001.352,1160.962c.671-1.76,2.6-3.688,4.611-2.431,3.353,2.012,4.024,6.454,3.437,10.059-1.174.754-3.521.922-3.1,2.85.586,1.844,2.012,3.269,2.6,5.113a5.2,5.2,0,0,1-4.191-5.03c-.5-2.431,2.1-3.437,3.269-5.03a6.82,6.82,0,0,0-2.012-5.7C2004.789,1159.118,2002.861,1160.795,2001.352,1160.962Z" transform="translate(-1795.559 -1091.213)" fill="#d47357" stroke="#d47357" stroke-width="0.094"/>
          <path id="Trazado_1034652" data-name="Trazado 1034652" d="M2069.752,1171.543c.5.755,1.089,1.425,1.593,2.1a34.379,34.379,0,0,1,3.437-1.844c-.5,3.269-1.006,6.538-1.593,9.808-.838-.167-1.677-.419-2.514-.67C2070.171,1177.914,2070.254,1174.728,2069.752,1171.543Z" transform="translate(-1851.217 -1102.128)" fill="#0e100f" stroke="#0e100f" stroke-width="0.094"/>
          <path id="Trazado_1034653" data-name="Trazado 1034653" d="M2349.652,1176.854c3.1-4.191,10.059-3.437,13.748-.335a12.366,12.366,0,0,1,.084,3.939l-1.341-.419a11.337,11.337,0,0,0-6.371-1.258C2353.676,1178.7,2350.239,1179.788,2349.652,1176.854Z" transform="translate(-2078.977 -1104.087)" fill="#191919" stroke="#191919" stroke-width="0.094"/>
          <path id="Trazado_1034654" data-name="Trazado 1034654" d="M2186.662,1201.862c4.61-1.928,10.981.335,12.155,5.449,1.174,7.041-7.712,12.993-13.748,8.969-5.365-3.185-4.275-12.406,1.593-14.418m.922,5.03c-1.173,1.341-1.509,4.024.5,4.862,2.347.419,4.61-2.934,2.85-4.862A2,2,0,0,0,2187.584,1206.891Z" transform="translate(-1942.225 -1126.244)" fill="#f8b191" stroke="#f8b191" stroke-width="0.094"/>
          <path id="Trazado_1034655" data-name="Trazado 1034655" d="M2332.665,1235.363c-2.263-4.275-.084-10.394,4.527-12.071a9.765,9.765,0,0,1,8.718,1.006c-.67,4.275-1.006,8.634-2.767,12.574-3.018,2.682-8.466,2.012-10.478-1.509m4.778-7.8a3.232,3.232,0,0,0,.5,5.533c1.341-1.006,3.018-2.18,2.934-4.191C2340.8,1227.4,2338.533,1226.058,2337.443,1227.567Z" transform="translate(-2064.42 -1143.735)" fill="#fca582" stroke="#fca582" stroke-width="0.094"/>
          <path id="Trazado_1034656" data-name="Trazado 1034656" d="M2209.628,1227.859a2,2,0,0,1,3.353,0c1.76,1.928-.5,5.281-2.85,4.862C2208.12,1231.967,2208.455,1229.284,2209.628,1227.859Z" transform="translate(-1964.269 -1147.212)" fill="#0b0a04" stroke="#0b0a04" stroke-width="0.094"/>
          <path id="Trazado_1034657" data-name="Trazado 1034657" d="M2356.131,1245.991c1.09-1.509,3.354-.251,3.354,1.425.084,1.928-1.509,3.185-2.934,4.191A3.27,3.27,0,0,1,2356.131,1245.991Z" transform="translate(-2083.109 -1162.158)" fill="#020000" stroke="#020000" stroke-width="0.094"/>
          <path id="Trazado_1034658" data-name="Trazado 1034658" d="M2015.752,1280.443l1.341.5a7.9,7.9,0,0,1,1.257.5,46.2,46.2,0,0,1-.838,5.952C2016.842,1285.137,2016.255,1282.79,2015.752,1280.443Z" transform="translate(-1807.276 -1190.742)" fill="#0b0f0b" stroke="#0b0f0b" stroke-width="0.094"/>
          <path id="Trazado_1034659" data-name="Trazado 1034659" d="M2035.057,1358.293c2.85,4.359,4.862,9.3,8.718,12.909,7.544,8.131,18.861,13.161,30.094,11.568-.083.335-.168,1.09-.251,1.425a44.2,44.2,0,0,1-7.964,16.011A29.05,29.05,0,0,1,2053,1393a61.79,61.79,0,0,1-14.753-22.214C2036.817,1366.759,2034.889,1362.736,2035.057,1358.293Z" transform="translate(-1822.977 -1254.09)" fill="#e07354" stroke="#e07354" stroke-width="0.094"/>
          <path id="Trazado_1034660" data-name="Trazado 1034660" d="M2182.7,1358.293c2.682,1.006,4.527,3.437,7.125,4.61,3.437,1.676,7.376,2.012,11.065,2.766-1.593,1.76-4.107.754-6.119.587C2189.995,1365.334,2184.713,1363.071,2182.7,1358.293Z" transform="translate(-1943.126 -1254.09)" fill="#d56d4e" stroke="#d56d4e" stroke-width="0.094"/>
          <path id="Trazado_1034661" data-name="Trazado 1034661" d="M1911.352,1466.611c4.023-3.688,7.544-7.88,11.568-11.568.419.084,1.257.168,1.677.251-1.09,2.515,1.341,4.527,2.683,6.371a108.5,108.5,0,0,0,28.92,23.471,178.947,178.947,0,0,0-18.358,14.25c-.838.671-2.347,1.425-3.185.251C1926.525,1488.909,1918.477,1478.1,1911.352,1466.611Z" transform="translate(-1722.324 -1332.818)" fill="#fefffe" stroke="#fefffe" stroke-width="0.094"/>
          <path id="Trazado_1034662" data-name="Trazado 1034662" d="M2185.71,1497.343c2.431,2.179,5.281,3.772,7.628,6.12a12.529,12.529,0,0,1,.167,1.844c-1.173,8.3-3.27,16.43-5.113,24.561-4.946-3.856-9.892-7.964-15.592-10.646a54.644,54.644,0,0,0,4.946-5.784A45.246,45.246,0,0,0,2185.71,1497.343Z" transform="translate(-1935.071 -1367.238)" fill="#fefefe" stroke="#fefefe" stroke-width="0.094"/>
          <path id="Trazado_1034663" data-name="Trazado 1034663" d="M1742.2,1518.811a58.059,58.059,0,0,1,10.059-3.018c.335,1.509.838,3.018,1.173,4.527,3.772,22.13,7.042,44.428,8.215,66.893,13.831.335,27.663.922,41.578.5h.754c10.478-.168,20.873-.754,31.267-1.844-2.263-16.346-6.538-32.273-9.808-48.368-.838-4.024-1.76-8.047-2.85-11.987-.335-1.76-.587-3.521-.755-5.365a12.565,12.565,0,0,1-.168-1.844c3.018.754,6.622.922,9.053,2.85,6.538,18.19,11.987,36.8,16.849,55.493,4.024,15.76,7.879,31.519,10.562,47.613,2.347,14.083,4.024,28.249,5.868,42.416a18.068,18.068,0,0,0,.335,2.1,62.545,62.545,0,0,0-11.484,7.712,36.263,36.263,0,0,0-4.191-5.281,24.788,24.788,0,0,0-3.521-.167c1.174-6.287.671-13.245-2.85-18.693.251,6.958.419,14-2.012,20.621a53.889,53.889,0,0,0-12.406,4.107c.754,3.185,3.688,6.79,1.509,9.808a27.963,27.963,0,0,1-1.928-7.8c-.335.336-.671.587-1.006.922a122.089,122.089,0,0,0-25.148,4.107c-4.443,1.09-8.969,2.1-12.993,4.359,1.174.168,2.347.336,3.6.5-1.593.251-3.269.419-4.862.671-.335,1.006-.671,2.1-1.09,3.1-9.3,2.263-18.274,5.365-27.411,8.215-2.85.838-5.868,2.6-8.886,1.509-6.958-2.012-13.831-4.275-20.621-6.706.251-2.934.838-6.119-.838-8.8a109.244,109.244,0,0,0-12.155-6.036c2.18-4.778,4.862-9.3,6.957-14.082,8.467-18.61,14.167-38.393,18.107-58.427,4.023-19.364,4.61-39.231,3.437-58.846-.419-10.059-1.593-20.034-2.263-30.093Z" transform="translate(-1563.403 -1382.251)" fill="#603618" stroke="#603618" stroke-width="0.094"/>
          <path id="Trazado_1034664" data-name="Trazado 1034664" d="M1343.275,1538.474c3.1-.838,6.036-2.012,9.221-2.431.671,10.059,1.844,20.034,2.263,30.094,1.09,19.7.5,39.482-3.437,58.846-3.94,20.034-9.64,39.817-18.107,58.427-2.1,4.778-4.778,9.3-6.957,14.083,4.107,1.844,8.215,3.772,12.155,6.036a31.639,31.639,0,0,0-6.12,5.951c-8.215,10.9-10.981,24.9-11.149,38.225q.126,3.772.5,7.544c-.671,0-2.1-.084-2.85-.084-3.94-.754-7.879-1.425-11.819-1.928-2.6-.5-6.371-.419-7.209-3.6a53.878,53.878,0,0,1,6.119-41.242c3.6-5.951,8.969-11.149,15.676-13.5.168-2.012.251-4.023.335-6.036,1.09-12.071,2.934-24.142,4.778-36.129a167.181,167.181,0,0,1,3.94-19.28c1.341-4.61,2.85-9.3,3.269-14.083a84.527,84.527,0,0,0-10.143-50.464c-1.425-2.347-2.431-5.2-5.2-6.287,1.677,3.269,3.94,6.119,5.616,9.388a83.306,83.306,0,0,1,8.215,25.231c.67,6.036,1.676,12.155.587,18.191-1.174,4.778-1.76,9.724-3.353,14.418-2.682,8.131-7.293,15.508-11.484,22.969-3.94,7.293-8.047,14.586-11.652,21.962-1.593,3.353-3.52,6.622-4.778,10.143a58.437,58.437,0,0,0-20.454-14.083,15.591,15.591,0,0,0-3.94-.755c1.006,2.179,3.353,2.766,5.365,3.688a45.418,45.418,0,0,1,15.592,10.981c-9.221-1.76-18.777-3.94-28.166-2.012-.084.419-.419,1.341-.5,1.844,10.562-1.927,21.208.336,31.351,3.269,2.347,1.006,4.527,2.264,6.79,3.353,1.006.5,2.012.922,3.018,1.425,1.677.838,3.353,1.76,4.946,2.682-4.359,3.6-8.8,7.377-11.652,12.323-7.209,12.322-10.143,27.663-6.371,41.578-.419-.084-1.257-.168-1.676-.252-5.281-1.09-10.479-2.514-15.759-3.688-9.64-2.515-19.28-5.114-28.333-9.221a26.884,26.884,0,0,1-12.071-10.562c-2.766-4.778-2.766-10.479-2.683-15.843,1.006-16.43,5.868-32.357,10.9-48.033,7.545-22.968,17.6-45.015,27.579-67.061a176.354,176.354,0,0,1,17.268-30.513,37.346,37.346,0,0,1,11.819-10.813C1317.121,1546.6,1330.2,1542.414,1343.275,1538.474Z" transform="translate(-1173.695 -1398.729)" fill="#fff" stroke="#fff" stroke-width="0.094"/>
          <path id="Trazado_1034665" data-name="Trazado 1034665" d="M1916.386,1532.77l-.084-1.677c2.515,4.107,4.778,8.467,7.8,12.239,5.281,6.958,10.31,14.083,15.34,21.208a208.84,208.84,0,0,1,17.1-13.831,23.312,23.312,0,0,0,3.6-3.437h.588c.838,0,1.676.084,2.514.084,5.784,4.275,11.652,8.3,17.436,12.658a218.476,218.476,0,0,0,4.862-21.963c1.089,3.94,2.011,7.963,2.85,11.987,3.27,16.094,7.544,32.021,9.808,48.367-10.394,1.09-20.872,1.593-31.267,1.844.252-10.395-.922-20.7-2.012-31.016-1.006-6.874-.922-14.083-3.1-20.789-.084,5.2,1.341,10.227,1.593,15.424,1.425,12.071,2.515,24.142,2.766,36.381-13.831.335-27.662-.167-41.578-.5C1923.427,1577.2,1920.158,1554.9,1916.386,1532.77Z" transform="translate(-1726.352 -1394.701)" fill="#fff" stroke="#fff" stroke-width="0.094"/>
          <path id="Trazado_1034666" data-name="Trazado 1034666" d="M2189.845,1539.643c.167,1.76.419,3.521.754,5.365a218.467,218.467,0,0,1-4.862,21.962c-5.7-4.359-11.652-8.382-17.436-12.658a7.565,7.565,0,0,1,.838-.754c5.784,2.682,10.646,6.79,15.592,10.646C2186.576,1556.073,2188.672,1547.942,2189.845,1539.643Z" transform="translate(-1931.409 -1401.658)" fill="#babcb9" stroke="#babcb9" stroke-width="0.094"/>
          <path id="Trazado_1034667" data-name="Trazado 1034667" d="M2331.652,1545.043c8.97,3.1,18.19,5.449,27.16,8.55,6.455,2.1,13.077,4.694,17.939,9.64,7.209,7.125,12.406,15.759,17.352,24.561,9.64,17.771,17.1,36.548,25.819,54.739,8.97,18.442,17.687,37.051,23.89,56.667,2.431,7.879,3.688,16.513.755,24.393-2.934,8.55-9.975,15.843-18.945,18.023-5.784,1.341-12.072,1.509-17.6-.838,3.269-.167,6.79-.838,9.221-3.269,4.359-4.191,5.868-10.646,5.114-16.514-1.173-9.724-7.964-18.106-16.43-22.717-2.18-1.257-4.694-.168-6.874.5a115.764,115.764,0,0,0-16.346-11.316c-2.012-3.6-4.191-7.125-6.37-10.73-2.935-4.61-5.365-9.556-8.718-13.915,1.089-18.023,1.76-36.045,1.425-54.068-.419,0-1.258.084-1.677.084.167,11.987-.252,23.974-.587,35.961-.083,6.79-1.006,13.58-.251,20.37-.671,8.467-.084,17.017-1.509,25.4-1.844-14.167-3.521-28.333-5.868-42.416-2.682-16.011-6.538-31.854-10.562-47.614-4.946-18.609-10.395-37.219-16.933-55.493m62.283,143.175c-1.006,1.174-2.766,2.431-2.347,4.191,1.006-.084,1.593-1.006,2.347-1.593a29.193,29.193,0,0,1,18.609-8.383c3.186-.335,6.371.419,9.641.5-.252-.419-.671-1.257-.922-1.676A31.054,31.054,0,0,0,2393.935,1688.218Z" transform="translate(-2064.331 -1406.052)" fill="#fff" stroke="#fff" stroke-width="0.094"/>
          <path id="Trazado_1034668" data-name="Trazado 1034668" d="M2160.636,1624.243c2.18,6.706,2.1,13.831,3.1,20.789,1.09,10.311,2.263,20.621,2.012,31.016H2165c-.251-12.155-1.341-24.31-2.767-36.381C2161.978,1634.469,2160.552,1629.44,2160.636,1624.243Z" transform="translate(-1925.169 -1470.499)" fill="#7d8483" stroke="#7d8483" stroke-width="0.094"/>
          <path id="Trazado_1034669" data-name="Trazado 1034669" d="M1675.1,1678.243c2.683,1.09,3.772,3.94,5.2,6.287,8.718,15.173,11.987,33.111,10.143,50.463-.335-1.341-.67-2.6-1.006-3.856,1.09-6.036.084-12.155-.587-18.19a81.045,81.045,0,0,0-8.215-25.232C1679.042,1684.446,1676.778,1681.512,1675.1,1678.243Z" transform="translate(-1530.083 -1514.44)" fill="#838c95" stroke="#838c95" stroke-width="0.094"/>
          <path id="Trazado_1034670" data-name="Trazado 1034670" d="M2518.319,1887.127c.419,0,1.257-.084,1.677-.084.251,18.022-.419,36.129-1.426,54.068l-1.005,2.263c-.755-6.79.167-13.58.251-20.37C2518.067,1911.185,2518.486,1899.2,2518.319,1887.127Z" transform="translate(-2215.371 -1684.345)" fill="#b7bbb9" stroke="#b7bbb9" stroke-width="0.094"/>
          <path id="Trazado_1034671" data-name="Trazado 1034671" d="M2382.767,2249.743c3.521,5.532,3.94,12.406,2.85,18.693-1.257.754-2.934,1.509-2.934,3.185a23.72,23.72,0,0,1-2.431.168,15.884,15.884,0,0,1,.5-1.509C2383.186,2263.742,2383.018,2256.616,2382.767,2249.743Z" transform="translate(-2103.877 -1979.48)" fill="#8696a0" stroke="#8696a0" stroke-width="0.094"/>
          <path id="Trazado_1034672" data-name="Trazado 1034672" d="M1420.38,2255.593a20.478,20.478,0,0,1,3.94.754,58.443,58.443,0,0,1,20.454,14.083c-.251.922-.419,1.844-.67,2.85-10.143-2.934-20.789-5.2-31.351-3.269.084-.5.419-1.341.5-1.844,9.388-2.011,18.945.251,28.166,2.012a46.221,46.221,0,0,0-15.592-10.981C1423.733,2258.275,1421.386,2257.688,1420.38,2255.593Z" transform="translate(-1316.603 -1984.241)" fill="#c3c9c8" stroke="#c3c9c8" stroke-width="0.094"/>
          <path id="Trazado_1034673" data-name="Trazado 1034673" d="M2655.106,2279.948a31.015,31.015,0,0,1,27.244-6.958c.251.42.671,1.257.922,1.677-3.185-.083-6.455-.754-9.64-.5a29.582,29.582,0,0,0-18.609,8.383c-.754.586-1.341,1.509-2.347,1.593C2652.256,2282.379,2654.016,2281.122,2655.106,2279.948Z" transform="translate(-2325.501 -1997.783)" fill="#babfbf" stroke="#babfbf" stroke-width="0.094"/>
          <path id="Trazado_1034674" data-name="Trazado 1034674" d="M1586.5,2280.793c.922,5.449.671,10.9,1.341,16.346-2.263-1.09-4.526-2.348-6.79-3.353.251-1.006.419-1.928.67-2.85C1582.9,2287.415,1584.824,2284.146,1586.5,2280.793Z" transform="translate(-1453.552 -2004.747)" fill="#373b3c" stroke="#373b3c" stroke-width="0.094"/>
          <path id="Trazado_1034675" data-name="Trazado 1034675" d="M2426.324,2315.156a54.538,54.538,0,0,1,17.352-5.113,103.427,103.427,0,0,1,16.346,11.317c6.2,5.2,12.574,11.065,15.088,19.028,2.012,6.119-1.341,13.58-7.46,15.927a4.68,4.68,0,0,1-6.371-3.688,31.915,31.915,0,0,1,2.682-5.03,39.673,39.673,0,0,0-11.568,2.851,67.9,67.9,0,0,0-9.639,5.448c-3.27,1.76-7.629,5.281-10.982,1.928a14.7,14.7,0,0,1,2.431-5.784,41.739,41.739,0,0,1,14.669-12.071c2.766-1.509,6.2-2.012,8.467-4.527a52.21,52.21,0,0,0-19.616,10.981c-4.023,3.186-7.544,7.042-11.735,10.059-1.844,1.425-4.694,2.1-6.454.084-1.509-1.594-.084-3.521.838-4.946a80.6,80.6,0,0,1,18.525-19.2c3.521-2.6,7.88-3.6,11.317-6.288-4.862.922-9.053,3.772-13.077,6.371a84.673,84.673,0,0,0-17.184,17.855c-.838.838-1.425,2.263-2.766,2.263a19.5,19.5,0,0,1-4.359-1.09c-.587-1.173-1.258-2.263-1.928-3.353.084-.587.336-1.76.419-2.347.5.922,1.006,1.76,1.593,2.683,2.43-6.371,6.286-12.071,10.31-17.52a39.632,39.632,0,0,1,13.831-11.4,27.433,27.433,0,0,0,4.862-3.269c-7.628,3.018-13.831,8.382-20.285,13.244-3.437,2.012-6.79,5.03-10.982,5.2-1.844.083-5.029-1.174-3.6-3.521,1.928-3.269,5.03-5.7,7.8-8.215A59.442,59.442,0,0,1,2426.324,2315.156Z" transform="translate(-2125.388 -2028.548)" fill="#faa784" stroke="#faa784" stroke-width="0.094"/>
          <path id="Trazado_1034676" data-name="Trazado 1034676" d="M1577.47,2347.357c.587-1.76,1.257-3.6,1.844-5.365.252.67.671,2.011.922,2.682-.084,2.012-.251,4.023-.335,6.036-6.622,2.43-11.987,7.544-15.676,13.5-7.376,12.238-9.891,27.411-6.119,41.242-1.173-.251-2.347-.5-3.6-.67.419.083,1.257.168,1.677.251-3.772-13.916-.838-29.255,6.371-41.578,2.85-4.946,7.209-8.8,11.652-12.323-1.677-.922-3.269-1.844-4.945-2.682A38.722,38.722,0,0,1,1577.47,2347.357Z" transform="translate(-1431.948 -2054.546)" fill="#bcbfc0" stroke="#bcbfc0" stroke-width="0.094"/>
          <path id="Trazado_1034677" data-name="Trazado 1034677" d="M2399.753,2356.137c6.454-4.777,12.741-10.226,20.285-13.244a23.511,23.511,0,0,1-4.862,3.269,39.642,39.642,0,0,0-13.831,11.4c-4.107,5.448-7.88,11.149-10.311,17.52a28.43,28.43,0,0,0-1.593-2.683c-3.6-6.538-8.467-12.825-9.64-20.369.587-.252,1.76-.838,2.347-1.174,0-1.174.084-2.347.168-3.521,0-1.76,1.677-2.431,2.934-3.185a24.713,24.713,0,0,1,3.521.168,36.2,36.2,0,0,1,4.192,5.281c-2.767,2.514-5.868,4.861-7.8,8.214-1.341,2.347,1.76,3.6,3.6,3.521C2392.963,2361.25,2396.316,2358.233,2399.753,2356.137Z" transform="translate(-2103.511 -2055.279)" fill="#a1592d" stroke="#a1592d" stroke-width="0.094"/>
          <path id="Trazado_1034678" data-name="Trazado 1034678" d="M2132.9,2364.551a53.89,53.89,0,0,1,12.406-4.108c-.167.335-.335,1.09-.5,1.51-.754,1.592-1.509,3.185-2.347,4.778-4.359,5.7-10.479,9.64-16.263,13.663a2.094,2.094,0,0,0-2.682,2.1c-1.006.755-2.1,1.425-3.1,2.18a2.1,2.1,0,0,0-2.767,2.012c-.587.5-1.174,1.09-1.76,1.593a48.868,48.868,0,0,0-13.664-6.539c-3.6-1.173-7.544-2.179-11.317-1.425.335-1.006.671-2.1,1.09-3.1,1.592-.251,3.186-.419,4.862-.67,7.8-1.425,15.508-3.437,23.219-5.449,3.772-1.174,7.712-1.844,11.4-3.521.335-.335.671-.587,1.006-.922a27.258,27.258,0,0,0,1.928,7.8C2136.587,2371.34,2133.653,2367.736,2132.9,2364.551Z" transform="translate(-1868.427 -2069.559)" fill="#a45c32" stroke="#a45c32" stroke-width="0.094"/>
          <path id="Trazado_1034679" data-name="Trazado 1034679" d="M2659.68,2365.54c2.179-.754,4.694-1.76,6.874-.5,8.466,4.61,15.256,12.993,16.429,22.717.755,5.868-.754,12.322-5.113,16.514-2.431,2.347-5.952,3.018-9.221,3.269-7.208-1.425-12.154-7.46-16.6-12.909a42.507,42.507,0,0,1,11.568-2.851,32.36,32.36,0,0,0-2.682,5.029,4.68,4.68,0,0,0,6.371,3.689c6.119-2.264,9.472-9.724,7.46-15.927C2672.254,2376.6,2665.883,2370.737,2659.68,2365.54Z" transform="translate(-2325.046 -2072.813)" fill="#e37f5f" stroke="#e37f5f" stroke-width="0.094"/>
          <path id="Trazado_1034680" data-name="Trazado 1034680" d="M2367.652,2372.588c.838-1.593,1.592-3.185,2.347-4.778a23.643,23.643,0,0,1,2.431-.168c-.083,1.174-.083,2.347-.167,3.521-.586.251-1.76.838-2.347,1.174-.167.083-.419.251-.586.335-.084.5-.335,1.593-.5,2.179A14.33,14.33,0,0,0,2367.652,2372.588Z" transform="translate(-2093.624 -2075.418)" fill="#92a8b8" stroke="#92a8b8" stroke-width="0.094"/>
          <path id="Trazado_1034681" data-name="Trazado 1034681" d="M2374.455,2392.728c.167-.084.419-.252.587-.335,1.174,7.544,6.035,13.831,9.64,20.37a22.977,22.977,0,0,1-.419,2.346c-.335-.67-1.006-1.927-1.341-2.514-2.18-4.443-4.778-8.634-7.125-12.909-.168-.419-.587-1.089-.754-1.509-.419-1.09-.755-2.179-1.09-3.27C2374.12,2394.321,2374.371,2393.23,2374.455,2392.728Z" transform="translate(-2098.75 -2095.557)" fill="#fefffe" stroke="#fefffe" stroke-width="0.094"/>
          <path id="Trazado_1034682" data-name="Trazado 1034682" d="M2116.128,2402.35a122.084,122.084,0,0,1,25.148-4.107c-3.6,1.593-7.544,2.347-11.4,3.521-7.712,2.012-15.424,4.024-23.22,5.449-1.173-.168-2.431-.335-3.6-.5C2107.159,2404.446,2111.686,2403.44,2116.128,2402.35Z" transform="translate(-1878.314 -2100.318)" fill="#3a2311" stroke="#3a2311" stroke-width="0.094"/>
          <path id="Trazado_1034683" data-name="Trazado 1034683" d="M2235.678,2407.857c5.784-4.024,11.9-8.047,16.262-13.664.252.5.838,1.593,1.174,2.18.335,1.09.67,2.18,1.089,3.269a132.045,132.045,0,0,1-8.131,12.071c.922.42,1.844.755,2.767,1.174a15.546,15.546,0,0,0,.838,1.676c.084.42.251,1.174.335,1.593-2.431,3.353-5.952,5.365-9.137,7.8.754-2.766,3.6-4.275,4.442-7.042-2.85-2.682-6.538-1.006-9.388.838a17.744,17.744,0,0,0-9.724-1.592,3.93,3.93,0,0,0-.754-.5c.587-.5,1.174-1.09,1.76-1.593a4,4,0,0,0,2.767-2.012c1.005-.67,2.1-1.425,3.1-2.179A3.945,3.945,0,0,0,2235.678,2407.857Z" transform="translate(-1977.913 -2097.022)" fill="#86909b" stroke="#86909b" stroke-width="0.094"/>
          <path id="Trazado_1034684" data-name="Trazado 1034684" d="M2434.3,2402.364c4.024-2.6,8.3-5.449,13.077-6.371-3.437,2.683-7.8,3.688-11.317,6.287a80.64,80.64,0,0,0-18.525,19.2c-.922,1.425-2.347,3.353-.837,4.946,1.676,2.012,4.61,1.258,6.454-.083,4.191-3.018,7.712-6.79,11.735-10.06A52.208,52.208,0,0,1,2454.5,2405.3c-2.263,2.431-5.616,2.934-8.466,4.526a43.637,43.637,0,0,0-14.669,12.071,14.7,14.7,0,0,0-2.432,5.784c.168,1.006.168,2.431,1.509,2.6,3.521.838,7.041-.922,9.64-3.1,3.688,2.766,6.873,6.119,10.562,8.885a69.188,69.188,0,0,0,22.465,11.987c9.221,3.186,19.029,2.431,28.669,2.6,5.029.084,10.227-.084,15.088,1.341a10,10,0,0,1,6.539,5.365c-4.275,5.114-10.562,8.047-16.765,10.143-15.508,5.281-31.435,9.64-47.781,11.652-7.711.67-15.927,1.341-23.052-2.18-4.946-2.682-9.557-6.119-14.334-9.137-5.2-4.779-12.658-5.03-18.274-8.969,2.431.252,5.114.419,7.377-.67,4.107-1.76,6.455-6.036,7.125-10.227,1.342-6.874-.922-13.748-3.353-20.118-.838-1.844-1.508-4.359-3.772-5.03-.251-.5-.5-.922-.754-1.425a19.537,19.537,0,0,0,4.359,1.089c1.341,0,2.012-1.341,2.767-2.264A87.589,87.589,0,0,1,2434.3,2402.364Z" transform="translate(-2122.551 -2098.487)" fill="#a35b31" stroke="#a35b31" stroke-width="0.094"/>
          <path id="Trazado_1034685" data-name="Trazado 1034685" d="M2344.283,2423.442c.167.335.586,1.09.754,1.509-1.258,4.275-4.191,7.8-6.12,11.736-.922-.419-1.844-.838-2.766-1.173A138.4,138.4,0,0,0,2344.283,2423.442Z" transform="translate(-2067.991 -2120.823)" fill="#4f3a29" stroke="#4f3a29" stroke-width="0.094"/>
          <path id="Trazado_1034686" data-name="Trazado 1034686" d="M2241.044,2431.542c2.347,4.359,4.946,8.551,7.125,12.91a8.524,8.524,0,0,0,.587,4.359,105.049,105.049,0,0,0,5.449,10.562c.084-.5.168-1.425.251-1.928,2.934,6.455,5.03,13.915,3.018,20.957-1.174,4.359-5.113,8.55-9.891,8.383-3.52,0-6.287-2.431-9.472-3.437a15.34,15.34,0,0,0,2.011,2.6c-6.539-1.257-12.825-3.436-19.28-5.113-4.108-1.09-8.467-.922-12.49-2.515,4.526-3.186,7.712-7.88,10.729-12.49,2.012,1.509,5.617,3.269,7.544.754.754-2.766-2.012-4.862-3.269-7.041,4.694-3.017,9.891-5.7,13.58-9.975,1.006-3.185.838-6.622,1.257-9.891-.839,1.76-1.76,3.437-2.431,5.281a15.6,15.6,0,0,0-.838-1.676C2236.853,2439.255,2239.787,2435.818,2241.044,2431.542Z" transform="translate(-1963.999 -2127.415)" fill="#a15b32" stroke="#a15b32" stroke-width="0.094"/>
          <path id="Trazado_1034687" data-name="Trazado 1034687" d="M1754.938,2435.593c1.677,2.683,1.09,5.868.838,8.8-2.347-.922-4.611-1.928-6.874-2.85A29.037,29.037,0,0,1,1754.938,2435.593Z" transform="translate(-1590.136 -2130.71)" fill="#bac0bc" stroke="#bac0bc" stroke-width="0.094"/>
          <path id="Trazado_1034688" data-name="Trazado 1034688" d="M1699.751,2465.67c2.263.922,4.61,1.928,6.874,2.85,6.79,2.431,13.664,4.694,20.621,6.706,3.018,1.006,6.035-.67,8.885-1.509,9.137-2.85,18.106-5.952,27.411-8.215,3.856-.755,7.712.251,11.316,1.425a48.862,48.862,0,0,1,13.664,6.539,3.976,3.976,0,0,0,.754.5,87.02,87.02,0,0,1,7.293,8.383c.671.754,1.257,1.509,1.928,2.263s1.174,1.592,1.844,2.431c1.257,2.179,4.024,4.275,3.269,7.041-1.928,2.515-5.533.755-7.544-.755-2.263-2.179-4.694-4.191-6.958-6.37-1.509-3.018-3.353-6.036-6.455-7.712a90.17,90.17,0,0,0-11.484-5.533,4.658,4.658,0,0,0,2.6,2.6c3.521,1.677,7.209,3.185,10.059,5.868a44.261,44.261,0,0,1,4.778,6.455c.419,3.856-1.341,7.377-3.856,10.227-.754-3.1-1.677-6.371-4.443-8.215-4.359-3.1-8.634-6.706-13.831-8.383,4.359,5.113,11.736,6.874,15.508,12.657.838,1.76.5,3.856.754,5.784-1.341,1.258-2.515,2.6-3.856,3.856-1.09.587-2.263,1.09-3.353,1.593-.167-3.185-1.257-6.538-3.856-8.55a44.259,44.259,0,0,0-10.981-6.539c4.359,3.772,11.065,5.281,13.412,11.065,1.341,2.683-.335,5.365-1.76,7.628-3.772,2.1-9.724,2.85-11.82-1.76,1.341-1.09,2.6-2.179,3.94-3.353-2.012-.922-3.94-1.928-5.952-2.766-2.011-.754-4.359-1.677-6.371-.5-6.2,2.934-12.657,6.287-19.783,5.952-4.946.251-9.389-2.515-14.251-2.431-7.628,0-15.256-.084-22.8-.5-2.263-.168-4.527-.335-6.706-.419C1688.769,2490.566,1691.536,2476.567,1699.751,2465.67Z" transform="translate(-1541.068 -2154.836)" fill="#f9a886" stroke="#f9a886" stroke-width="0.094"/>
          <path id="Trazado_1034689" data-name="Trazado 1034689" d="M2265.951,2469.337a2.094,2.094,0,0,1,2.682-2.1A4.277,4.277,0,0,1,2265.951,2469.337Z" transform="translate(-2010.868 -2156.408)" fill="#77553e" stroke="#77553e" stroke-width="0.094"/>
          <path id="Trazado_1034690" data-name="Trazado 1034690" d="M2293.252,2480.474c.754-1.76,1.593-3.521,2.431-5.281-.335,3.269-.168,6.706-1.258,9.891-3.772,4.275-8.885,6.958-13.58,9.975a26.463,26.463,0,0,0-1.844-2.431,28.514,28.514,0,0,0,5.029-2.6l.335-.167c3.186-2.431,6.79-4.527,9.137-7.8A12.471,12.471,0,0,0,2293.252,2480.474Z" transform="translate(-2021.488 -2162.934)" fill="#3c2b1f" stroke="#3c2b1f" stroke-width="0.094"/>
          <path id="Trazado_1034691" data-name="Trazado 1034691" d="M2234.9,2491.612a2.1,2.1,0,0,1,2.766-2.012A4.187,4.187,0,0,1,2234.9,2491.612Z" transform="translate(-1985.603 -2174.574)" fill="#7a563f" stroke="#7a563f" stroke-width="0.094"/>
          <path id="Trazado_1034692" data-name="Trazado 1034692" d="M3601.428,2497.859a69.45,69.45,0,0,1,25.651.922,8.158,8.158,0,0,1,6.036,4.359c-6.287,4.024-14,4.863-21.375,4.695-7.125-.335-14.753-.838-20.538-5.449,2.431-3.1,6.539-3.856,10.227-4.526m4.778,3.437a1.27,1.27,0,0,0-.922,1.76c3.521,1.844,7.712,1.593,11.484.838,1.174-.084,2.683-.838,1.76-2.264A22.794,22.794,0,0,0,3606.206,2501.3Z" transform="translate(-3089.25 -2180.738)" fill="#a56134" stroke="#a56134" stroke-width="0.094"/>
          <path id="Trazado_1034693" data-name="Trazado 1034693" d="M2422.972,2505.2a8.52,8.52,0,0,1-.587-4.359c.335.67,1.006,1.928,1.341,2.514.587,1.09,1.258,2.264,1.928,3.354.251.419.5.922.754,1.425.838,1.844,1.592,3.772,2.347,5.616-.084.5-.168,1.425-.251,1.928A83.338,83.338,0,0,1,2422.972,2505.2Z" transform="translate(-2138.131 -2183.806)" fill="#6e3c1c" stroke="#6e3c1c" stroke-width="0.094"/>
          <path id="Trazado_1034694" data-name="Trazado 1034694" d="M2271.449,2511.573c2.767-1.76,6.539-3.437,9.389-.838-.838,2.766-3.688,4.275-4.443,7.042l-.335.168a31.906,31.906,0,0,1-5.03,2.6c-.671-.755-1.258-1.509-1.928-2.264.754-.586,1.425-1.09,2.179-1.676,1.677-.754,4.359-.839,4.862-3.018a14.367,14.367,0,0,0-3.6-1.76,24.153,24.153,0,0,0-1.09,2.6A16.285,16.285,0,0,1,2271.449,2511.573Z" transform="translate(-2013.432 -2190.764)" fill="#2e2b26" stroke="#2e2b26" stroke-width="0.094"/>
          <path id="Trazado_1034695" data-name="Trazado 1034695" d="M2132.3,2510.292a90.59,90.59,0,0,1,11.484,5.533c3.1,1.592,4.945,4.694,6.455,7.711-.084.419-.335,1.257-.419,1.676a41.566,41.566,0,0,0-4.778-6.455c-2.85-2.682-6.539-4.191-10.06-5.868A3.971,3.971,0,0,1,2132.3,2510.292Z" transform="translate(-1902.115 -2191.495)" fill="#cc7654" stroke="#cc7654" stroke-width="0.094"/>
          <path id="Trazado_1034696" data-name="Trazado 1034696" d="M2229.5,2511.584a19.413,19.413,0,0,1,9.724,1.592c0,.755,0,2.18-.084,2.85a20.728,20.728,0,0,1-.167,2.179c-.754.587-1.509,1.09-2.18,1.677A97.3,97.3,0,0,0,2229.5,2511.584Z" transform="translate(-1981.208 -2192.451)" fill="#592b12" stroke="#592b12" stroke-width="0.094"/>
          <path id="Trazado_1034697" data-name="Trazado 1034697" d="M3667.323,2516.9a23.633,23.633,0,0,1,12.322.335c.922,1.425-.587,2.1-1.76,2.263-3.772.755-7.963,1.006-11.484-.838C3666.149,2517.654,3666.4,2517.151,3667.323,2516.9Z" transform="translate(-3150.367 -2196.342)" fill="#2d241c" stroke="#2d241c" stroke-width="0.094"/>
          <path id="Trazado_1034698" data-name="Trazado 1034698" d="M2280.52,2525.041c.335-.838.754-1.76,1.09-2.6a15.913,15.913,0,0,1,3.6,1.76c-.419,2.179-3.1,2.263-4.862,3.018A20.6,20.6,0,0,0,2280.52,2525.041Z" transform="translate(-2022.587 -2201.382)" fill="#6d8fac" stroke="#6d8fac" stroke-width="0.094"/>
          <path id="Trazado_1034699" data-name="Trazado 1034699" d="M3591.2,2525.593c5.784,4.611,13.412,5.113,20.538,5.449,7.376.168,15-.671,21.375-4.694-.251,1.341-.168,2.766-.838,4.023a21.032,21.032,0,0,1-5.113,3.437c-4.611,1.928-9.724,1.677-14.586,1.844a49.057,49.057,0,0,1-15.591-2.179,16.253,16.253,0,0,1-4.694-2.683C3590.95,2529.449,3591.37,2527.353,3591.2,2525.593Z" transform="translate(-3089.25 -2203.946)" fill="#6c3c1e" stroke="#6c3c1e" stroke-width="0.094"/>
          <path id="Trazado_1034700" data-name="Trazado 1034700" d="M2382.1,2539.993c2.179.67,2.849,3.1,3.772,5.03,2.431,6.37,4.695,13.244,3.353,20.118-.67,4.191-3.017,8.467-7.125,10.227-2.263,1.174-4.946.922-7.377.67a31.132,31.132,0,0,0-4.611-1.844,15.345,15.345,0,0,1-2.011-2.6c3.185,1.006,6.036,3.436,9.472,3.436,4.778.168,8.718-3.939,9.892-8.383,2.011-7.041-.168-14.5-3.018-20.956C2383.693,2543.764,2382.939,2541.921,2382.1,2539.993Z" transform="translate(-2093.99 -2215.662)" fill="#fde2b9" stroke="#fde2b9" stroke-width="0.094"/>
          <path id="Trazado_1034701" data-name="Trazado 1034701" d="M2107.1,2556.193c5.2,1.676,9.389,5.281,13.832,8.383,2.85,1.844,3.688,5.2,4.442,8.215l-2.011,1.76c-.252-1.928,0-4.023-.754-5.784C2118.838,2563.067,2111.461,2561.306,2107.1,2556.193Z" transform="translate(-1881.609 -2228.845)" fill="#cb714c" stroke="#cb714c" stroke-width="0.094"/>
          <path id="Trazado_1034702" data-name="Trazado 1034702" d="M2541.352,2557.67c3.437,3.353,7.8-.168,10.981-1.928l.167,1.425c-2.6,2.263-6.2,3.94-9.639,3.1C2541.52,2560.1,2541.52,2558.676,2541.352,2557.67Z" transform="translate(-2234.967 -2228.479)" fill="#864c2b" stroke="#864c2b" stroke-width="0.094"/>
          <path id="Trazado_1034703" data-name="Trazado 1034703" d="M3622.335,2569.852a8.654,8.654,0,0,0-.083-1.509,49.059,49.059,0,0,0,15.591,2.179c4.862-.168,9.976.084,14.586-1.844-.167,1.006-.251,2.012-.419,3.018a59.621,59.621,0,0,1-21.124,0,49.681,49.681,0,0,0,21.041,1.844c-.084.419-.251,1.257-.335,1.677A50.655,50.655,0,0,1,3622.335,2569.852Z" transform="translate(-3114.516 -2238.732)" fill="#f6cfa0" stroke="#f6cfa0" stroke-width="0.094"/>
          <path id="Trazado_1034704" data-name="Trazado 1034704" d="M3620.125,2576.443a49.38,49.38,0,0,0,29.339,5.365c.335,1.844.168,3.772.335,5.616-7.209,2.85-15.089,2.514-22.634,1.928,7.126-.335,14.251-.754,21.125-3.018,1.843-.083,1.676-2.012.837-3.018-9.137.419-18.777.336-27.411-3.185-.587.419-1.09.922-1.677,1.425,2.6.671,5.113,1.509,7.712,2.1,6.2,1.425,12.574,1.258,18.861,1.677-8.8,1.844-17.939,3.185-26.908,1.844A41.726,41.726,0,0,1,3620.125,2576.443Z" transform="translate(-3112.306 -2245.323)" fill="#9a5e37" stroke="#9a5e37" stroke-width="0.094"/>
          <path id="Trazado_1034705" data-name="Trazado 1034705" d="M2183.425,2583.52c.084-.419.335-1.258.419-1.677,2.347,2.1,4.694,4.191,6.957,6.371-3.018,4.61-6.119,9.221-10.729,12.49-2.1-.419-4.275-.839-6.371-1.258,1.257-1.257,2.515-2.6,3.855-3.855l2.012-1.761C2182.084,2590.9,2183.844,2587.375,2183.425,2583.52Z" transform="translate(-1935.802 -2249.717)" fill="#502912" stroke="#502912" stroke-width="0.094"/>
          <path id="Trazado_1034706" data-name="Trazado 1034706" d="M3668.6,2586.343a59.641,59.641,0,0,0,21.125,0,14.269,14.269,0,0,1-.083,1.844A49.791,49.791,0,0,1,3668.6,2586.343Z" transform="translate(-3152.232 -2253.379)" fill="#945c33" stroke="#945c33" stroke-width="0.094"/>
          <path id="Trazado_1034707" data-name="Trazado 1034707" d="M3619.971,2596.768c.5-.5,1.09-.922,1.677-1.425,8.634,3.521,18.274,3.6,27.411,3.186.838,1.006,1.006,2.933-.838,3.017-6.79,2.263-14,2.767-21.124,3.018,7.544.67,15.424.922,22.633-1.928l-.168,1.76c-7.209,2.682-15,2.431-22.465,1.76a61.98,61.98,0,0,0,22.549,1.928,24.353,24.353,0,0,1-2.348,1.76c-9.388,1.174-18.693-1.425-27.495-4.359,0-.336-.167-1.006-.167-1.258,0-.419-.084-1.341-.084-1.844,8.97,1.341,18.106-.083,26.909-1.844-6.288-.419-12.658-.251-18.861-1.676C3625.085,2598.277,3622.57,2597.522,3619.971,2596.768Z" transform="translate(-3112.32 -2260.703)" fill="#ecc193" stroke="#ecc193" stroke-width="0.094"/>
          <path id="Trazado_1034708" data-name="Trazado 1034708" d="M2046.474,2603.443a42.8,42.8,0,0,1,10.981,6.538c2.682,2.012,3.688,5.365,3.856,8.551,1.09-.587,2.263-1.09,3.353-1.593,2.1.419,4.275.838,6.371,1.257,4.023,1.593,8.382,1.425,12.49,2.515,6.454,1.676,12.741,3.856,19.28,5.113a44.062,44.062,0,0,1,4.611,1.844c5.616,3.94,13.077,4.191,18.274,8.97,3.1,2.85,6.79,4.862,10.227,7.125a27.389,27.389,0,0,0,14.5,4.946c13.915.838,27.579-2.934,40.991-6.12,7.042-1.593,13.832-4.275,20.621-6.538a58.617,58.617,0,0,0,14.335-7.544c.586.67,1.174,1.257,1.76,1.928-7.377,7.126-17.6,9.64-27.076,12.658a186.161,186.161,0,0,1-47.278,9.808c-9.3.754-18.022-3.186-26.489-6.539-8.047-3.269-16.765-5.365-25.483-5.113-13.664.335-27.327.839-41.075.419-7.125-.251-14.5-.251-21.124-3.186,5.449-4.61,11.149-8.969,16.43-13.831a14.269,14.269,0,0,0,1.928-2.515c1.425-2.263,3.185-4.946,1.76-7.628C2057.456,2608.808,2050.833,2607.215,2046.474,2603.443Z" transform="translate(-1826.682 -2267.293)" fill="#834827" stroke="#834827" stroke-width="0.094"/>
          <path id="Trazado_1034709" data-name="Trazado 1034709" d="M3618.986,2643.493c0,.335.168.922.168,1.258,8.8,3.018,18.106,5.532,27.5,4.359a15.561,15.561,0,0,0,2.347-1.76,62,62,0,0,1-22.549-1.928c7.544.67,15.256.922,22.465-1.76a33.654,33.654,0,0,1-.251,8.718,51.619,51.619,0,0,1-8.047.335c-6.2-1.089-12.49-2.347-17.938-5.616-.922-.419-1.761-1.257-2.85-1.089-.084.251-.168.67-.251.922,6.2,4.946,14.25,6.2,21.878,7.461a46.416,46.416,0,0,1-7.544.922,38.656,38.656,0,0,1-15.256-4.108C3618.819,2648.69,3618.819,2646.091,3618.986,2643.493Z" transform="translate(-3111.586 -2299.883)" fill="#975c35" stroke="#975c35" stroke-width="0.094"/>
          <path id="Trazado_1034710" data-name="Trazado 1034710" d="M1680.372,2656.35c2.1-1.174,4.359-.251,6.371.5-3.94,2.767-7.628,5.784-11.484,8.718-3.772,2.934-8.047,5.365-10.814,9.389-2.934,4.275-4.694,9.892-2.347,14.837l-.587-.419c-1.257-.922-2.6-2.1-4.275-1.844-5.449.084-10.813.838-16.178,1.09-13.58-.419-27.16.083-40.656-.084.755-8.047,1.173-16.095,2.263-24.058,3.94.5,7.88,1.173,11.819,1.928,1.509.083,3.185,1.006,4.443-.168,2.18-1.76,3.269-4.443,4.61-6.874,7.628.419,15.256.419,22.8.5,4.862-.083,9.3,2.6,14.25,2.431C1667.714,2662.637,1674.169,2659.368,1680.372,2656.35Z" transform="translate(-1469.298 -2309.889)" fill="#5e3417" stroke="#5e3417" stroke-width="0.094"/>
          <path id="Trazado_1034711" data-name="Trazado 1034711" d="M3624.3,2657.347c1.09-.168,1.845.67,2.85,1.089,5.449,3.27,11.736,4.527,17.939,5.616,2.514.335,5.029.5,7.46.839a19.789,19.789,0,0,1-6.623.922c-7.544-1.258-15.675-2.6-21.878-7.461A8.608,8.608,0,0,1,3624.3,2657.347Z" transform="translate(-3115.982 -2311.138)" fill="#fde2b9" stroke="#fde2b9" stroke-width="0.094"/>
          <path id="Trazado_1034712" data-name="Trazado 1034712" d="M1459.552,2657.443a16.549,16.549,0,0,0,2.012.251c5.281,1.174,10.478,2.6,15.759,3.689,1.174.251,2.347.418,3.6.67.922,3.185,4.61,3.1,7.209,3.6-1.006,7.964-1.509,16.095-2.263,24.058-8.634-.084-17.268,0-25.9,0C1459.8,2679.07,1459.636,2668.257,1459.552,2657.443Z" transform="translate(-1354.685 -2311.235)" fill="#3d3d42" stroke="#3d3d42" stroke-width="0.094"/>
          <path id="Trazado_1034713" data-name="Trazado 1034713" d="M1951.572,2661.493c2.012.838,4.023,1.844,5.952,2.767-1.258,1.09-2.6,2.263-3.94,3.353a54.3,54.3,0,0,0-16.6,15.508c-2.431,3.521-2.85,7.964-5.2,11.484-1.089,1.844-3.437.671-4.862-.167-2.347-4.862-.5-10.562,2.347-14.837,2.683-4.023,7.042-6.455,10.813-9.389C1943.944,2667.277,1947.716,2664.259,1951.572,2661.493Z" transform="translate(-1734.127 -2314.53)" fill="#904e29" stroke="#904e29" stroke-width="0.094"/>
          <path id="Trazado_1034714" data-name="Trazado 1034714" d="M1678.349,2672.743c2.263.084,4.527.251,6.706.419-1.342,2.348-2.431,5.03-4.611,6.874-1.258,1.09-3.018.251-4.443.168.671,0,2.1.083,2.85.083Q1678.474,2676.515,1678.349,2672.743Z" transform="translate(-1530.815 -2323.684)" fill="#bfc5c5" stroke="#bfc5c5" stroke-width="0.094"/>
          <path id="Trazado_1034715" data-name="Trazado 1034715" d="M3619.552,2685.343a38.633,38.633,0,0,0,15.257,4.107c1.844.252,3.688.838,5.616,1.258a40.581,40.581,0,0,1-20.621-3.689A6.246,6.246,0,0,1,3619.552,2685.343Z" transform="translate(-3112.319 -2333.937)" fill="#fde2b9" stroke="#fde2b9" stroke-width="0.094"/>
          <path id="Trazado_1034716" data-name="Trazado 1034716" d="M1937.351,2709.4a55.336,55.336,0,0,1,16.6-15.508c2.1,4.694,8.131,3.94,11.82,1.76a14.3,14.3,0,0,1-1.928,2.515c-5.281,4.862-10.981,9.221-16.43,13.831a23.208,23.208,0,0,0-1.006,3.437,17.687,17.687,0,0,1-.5-2.012c-4.862,2.933-8.047,8.3-13.664,9.975-2.18.754-4.191-.67-6.035-1.509a11.709,11.709,0,0,1,.5-1.593l.587.419c1.425.755,3.772,2.012,4.862.168C1934.5,2717.364,1934.919,2712.921,1937.351,2709.4Z" transform="translate(-1734.408 -2340.894)" fill="#4f2815" stroke="#4f2815" stroke-width="0.094"/>
          <path id="Trazado_1034717" data-name="Trazado 1034717" d="M3707.258,2691.529a51.741,51.741,0,0,0,8.047-.335c.083,1.006.167,2.095.335,3.1-.922-.084-1.76-.084-2.683-.084-2.347-.168-4.526.671-6.79,1.09-1.844-.419-3.688-.922-5.616-1.258a38.669,38.669,0,0,0,7.544-.922,17.625,17.625,0,0,0,6.622-.922C3712.287,2692.031,3709.772,2691.863,3707.258,2691.529Z" transform="translate(-3178.231 -2338.697)" fill="#d9b085" stroke="#d9b085" stroke-width="0.094"/>
          <path id="Trazado_1034718" data-name="Trazado 1034718" d="M3619.353,2693.893a40.584,40.584,0,0,0,20.622,3.688c2.263-.418,4.443-1.257,6.79-1.089-4.527,1.509-9.221,2.934-14,3.185-4.61.419-9.221-.419-13.664-1.09A44.086,44.086,0,0,1,3619.353,2693.893Z" transform="translate(-3111.953 -2340.894)" fill="#975835" stroke="#975835" stroke-width="0.094"/>
          <path id="Trazado_1034719" data-name="Trazado 1034719" d="M3645.947,2707.843c.922,0,1.761,0,2.683.084l-1.006,1.425c-9.389,2.515-19.448,4.778-29.087,1.76l-.335-1.173c4.526.671,9.137,1.509,13.663,1.089C3636.81,2710.777,3641.42,2709.351,3645.947,2707.843Z" transform="translate(-3111.22 -2352.245)" fill="#fde2b9" stroke="#fde2b9" stroke-width="0.094"/>
          <path id="Trazado_1034720" data-name="Trazado 1034720" d="M3620.451,2716.6c9.556,3.018,19.615.754,29.088-1.76l1.174-.252c-.084,1.594-.168,3.185-.335,4.778-4.108,1.426-8.3,3.018-12.742,2.935-.838-.252-1.593-.419-2.431-.587a50.058,50.058,0,0,0,15.173-4.359l-1.509-1.258c-4.359,2.18-9.3,2.85-14,4.023-4.61,1.09-9.3.252-13.831-.167A16.629,16.629,0,0,1,3620.451,2716.6Z" transform="translate(-3113.052 -2357.738)" fill="#95562e" stroke="#95562e" stroke-width="0.094"/>
          <path id="Trazado_1034721" data-name="Trazado 1034721" d="M2207.563,2735.536c6.2-2.179,12.407-5.029,16.766-10.143,1.844,2.516,5.951,6.2,2.766,9.221-5.868,5.449-13.832,7.8-21.208,10.646-1.09.336-2.1.671-3.185,1.006a284.131,284.131,0,0,1-30.01,8.382c-8.634,1.593-17.436,3.27-26.237,2.515-13.748-1.174-25.735-9.137-39.315-11.317a60.85,60.85,0,0,0-14.083-.587,69.954,69.954,0,0,1,.084,8.383c-1.174,1.174-2.934,1.341-4.443,1.676a217.193,217.193,0,0,1-28.584,1.761c-7.042-.251-14.418-.419-20.957-3.353-3.018-1.257-2.347-5.114-2.934-7.712-.167-1.593-.419-3.269-.67-4.778a16.214,16.214,0,0,1,1.006-3.437c6.623,2.934,14,2.934,21.124,3.185,13.664.419,27.328-.083,41.075-.418,8.718-.252,17.436,1.928,25.483,5.113,8.466,3.353,17.184,7.293,26.489,6.539a189.842,189.842,0,0,0,47.278-9.808c9.472-3.017,19.7-5.532,27.076-12.657-.587-.671-1.174-1.258-1.761-1.928a58.631,58.631,0,0,1-14.334,7.544c-6.874,2.263-13.58,4.945-20.621,6.538-13.412,3.186-27.076,6.958-40.991,6.12a27.381,27.381,0,0,1-14.5-4.946c-3.437-2.347-7.209-4.274-10.227-7.125,4.778,3.018,9.388,6.454,14.334,9.137,7.125,3.521,15.34,2.85,23.052,2.18C2176.044,2745.176,2191.971,2740.817,2207.563,2735.536Z" transform="translate(-1823.388 -2366.526)" fill="#212121" stroke="#212121" stroke-width="0.094"/>
          <path id="Trazado_1034722" data-name="Trazado 1034722" d="M3632.588,2726.267c4.694-1.174,9.64-1.844,14-4.024l1.509,1.257a50.758,50.758,0,0,1-15.173,4.359c-1.425.251-2.85.587-4.191.922a33.43,33.43,0,0,0,7.544,2.012,61.354,61.354,0,0,0,11.736.419c-.084.419-.168,1.257-.251,1.677-6.874,0-14-.084-20.538-2.515a41.571,41.571,0,0,0-9.472-2.515,11.652,11.652,0,0,0,.922-1.76C3623.284,2726.518,3627.978,2727.44,3632.588,2726.267Z" transform="translate(-3110.855 -2363.963)" fill="#f4d4a3" stroke="#f4d4a3" stroke-width="0.094"/>
          <path id="Trazado_1034723" data-name="Trazado 1034723" d="M3712.251,2743.177c4.443.083,8.634-1.509,12.742-2.934-.084.587-.167,1.257-.251,1.844-2.851.838-5.7,1.509-8.55,2.179C3714.85,2743.931,3713.509,2743.512,3712.251,2743.177Z" transform="translate(-3187.751 -2378.61)" fill="#fde2b9" stroke="#fde2b9" stroke-width="0.094"/>
          <path id="Trazado_1034724" data-name="Trazado 1034724" d="M3617.752,2752.393a36.74,36.74,0,0,1,9.472,2.515c6.539,2.431,13.664,2.431,20.537,2.514h.671c-.419.839-.587,2.1-1.761,2.18-5.03,1.425-10.143.419-15.089-.671-4.778-1.174-9.64-2.682-13.412-6.035Z" transform="translate(-3110.855 -2388.497)" fill="#97582e" stroke="#97582e" stroke-width="0.094"/>
          <path id="Trazado_1034725" data-name="Trazado 1034725" d="M3676.7,2753.315c1.426-.335,2.767-.67,4.192-.922.754.167,1.592.419,2.431.586,1.341.335,2.6.754,3.94,1.09-1.006.335-2.012.755-3.019,1.174A29.4,29.4,0,0,1,3676.7,2753.315Z" transform="translate(-3158.823 -2388.497)" fill="#c99663" stroke="#c99663" stroke-width="0.094"/>
          <path id="Trazado_1034726" data-name="Trazado 1034726" d="M3720.585,2752.323a80.005,80.005,0,0,0,8.55-2.179l.252,3.772a54.838,54.838,0,0,1-11.735-.419A30.448,30.448,0,0,1,3720.585,2752.323Z" transform="translate(-3192.145 -2386.666)" fill="#915935" stroke="#915935" stroke-width="0.094"/>
          <path id="Trazado_1034727" data-name="Trazado 1034727" d="M3544.852,2767.971a193.34,193.34,0,0,0,14.167-13.328c3.772,3.353,8.634,4.861,13.412,6.035,4.945,1.09,10.143,2.1,15.088.671,1.425-.335,1.928.251,1.425,1.844-2.1.5-4.275,1.341-6.371.838-8.048-1.928-16.6-2.6-23.64-7.209-.083.167-.335.586-.5.838-4.107,3.689-7.88,7.712-12.49,10.646Z" transform="translate(-3051.535 -2390.328)" fill="#fee7c0" stroke="#fee7c0" stroke-width="0.094"/>
          <path id="Trazado_1034728" data-name="Trazado 1034728" d="M3306.772,2763.8c9.724-1.844,19.867-2.263,29.507.251,2.85.922,6.286,1.844,7.125,5.114-9.892,5.448-21.627,5.281-32.525,4.359a24.674,24.674,0,0,1-13.077-5.03c1.928-3.1,5.7-3.94,8.97-4.694m5.868,2.263c-.838.336-1.76.587-2.6.922.671,1.006,1.342,2.264,2.683,2.515a33.946,33.946,0,0,0,11.652.838c2.6-.335,5.7-.587,7.042-3.185a16.951,16.951,0,0,1-1.928-1.509l-.419.335A37.471,37.471,0,0,0,3312.64,2766.062Z" transform="translate(-2850.506 -2396.55)" fill="#a25f34" stroke="#a25f34" stroke-width="0.094"/>
          <path id="Trazado_1034729" data-name="Trazado 1034729" d="M3614.74,2766.731c.083-.168.334-.587.5-.838,7.042,4.611,15.591,5.281,23.639,7.209,2.179.5,4.359-.335,6.37-.839a10.318,10.318,0,0,0-.167,1.593,35.983,35.983,0,0,1-8.382,2.011c1.006-.754,2.012-1.509,2.934-2.263-8.047,2.18-16.765.084-23.555-4.443a1.854,1.854,0,0,1-.671-.083c-.419,1.174.587,1.928,1.425,2.431a35.2,35.2,0,0,0,11.149,4.191c-.922.587-1.928,1.174-2.85,1.76q9.807-.629,19.615-.755c.084.419.251,1.174.335,1.593-.167.419-.419,1.174-.587,1.593-1.173.084-2.431.167-3.6.167-5.532-.335-11.4-.335-16.6-2.766-3.018-1.258-6.2-2.683-8.382-5.281l-1.258,1.257a33.627,33.627,0,0,1,5.616,3.94c-1.508-.168-3.269.251-4.443-1.006-.419.5-.754.922-1.173,1.425l-.5.419C3614.655,2774.276,3614.572,2770.5,3614.74,2766.731Z" transform="translate(-3107.926 -2399.482)" fill="#945a33" stroke="#945a33" stroke-width="0.094"/>
          <path id="Trazado_1034730" data-name="Trazado 1034730" d="M3547.322,2781.489c4.61-2.934,8.466-7.042,12.49-10.646-.167,3.772-.167,7.544-.335,11.233-4.275,0-8.551-.084-12.826-.084Z" transform="translate(-3052.999 -2403.51)" fill="#7d8483" stroke="#7d8483" stroke-width="0.094"/>
          <path id="Trazado_1034731" data-name="Trazado 1034731" d="M3377.452,2778.367a37.466,37.466,0,0,1,16.429-.083c-3.017,3.688-8.131,2.682-12.238,2.431C3379.8,2780.714,3378.625,2779.457,3377.452,2778.367Z" transform="translate(-2915.318 -2408.854)" fill="#1d1f20" stroke="#1d1f20" stroke-width="0.094"/>
          <path id="Trazado_1034732" data-name="Trazado 1034732" d="M3363.5,2781.634c.838-.335,1.677-.587,2.6-.922,1.173,1.09,2.431,2.347,4.107,2.347,4.191.252,9.3,1.258,12.239-2.431l.419-.335a16.933,16.933,0,0,1,1.928,1.509c-1.341,2.6-4.443,2.85-7.042,3.185-3.856.252-7.88.335-11.652-.838C3364.759,2783.9,3364.173,2782.724,3363.5,2781.634Z" transform="translate(-2903.967 -2411.199)" fill="#49392f" stroke="#49392f" stroke-width="0.094"/>
          <path id="Trazado_1034733" data-name="Trazado 1034733" d="M3620.926,2783.443a1.852,1.852,0,0,1,.67.083c6.79,4.611,15.508,6.707,23.556,4.443-1.006.754-2.012,1.509-2.934,2.263a32.18,32.18,0,0,0,8.382-2.012c-.083.922-.167,1.844-.167,2.85-6.539.084-13.077.419-19.616.754.922-.586,1.844-1.173,2.851-1.76a35.917,35.917,0,0,1-11.149-4.191C3621.512,2785.371,3620.506,2784.533,3620.926,2783.443Z" transform="translate(-3113.358 -2413.763)" fill="#f9daaa" stroke="#f9daaa" stroke-width="0.094"/>
          <path id="Trazado_1034734" data-name="Trazado 1034734" d="M3297.715,2795.593a24.675,24.675,0,0,0,13.077,5.03c10.9.922,22.633,1.006,32.525-4.359-.335,1.677-.587,3.353-.838,5.029-.168.084-.5.167-.67.252-4.276-.336-8.215,2.011-12.407,2.011a74.177,74.177,0,0,1-26.154-1.341l-.67-.084A6.4,6.4,0,0,1,3297.715,2795.593Z" transform="translate(-2850.419 -2423.649)" fill="#6d3b1c" stroke="#6d3b1c" stroke-width="0.094"/>
          <path id="Trazado_1034735" data-name="Trazado 1034735" d="M1923.575,2809.168c5.617-1.676,8.8-7.042,13.664-9.975a17.488,17.488,0,0,1,.5,2.012,46.571,46.571,0,0,1,.67,4.778,15.021,15.021,0,0,1-.922,3.94c-1.257,1.509-2.934,2.767-3.521,4.778-.419.084-.922.251-1.341.335a18.427,18.427,0,0,1-6.454,8.047c-4.107-1.173-8.467-3.437-10.227-7.543-1.173-2.767.587-5.449,1.509-7.964C1919.384,2808.5,1921.4,2809.923,1923.575,2809.168Z" transform="translate(-1725.745 -2426.579)" fill="#673719" stroke="#673719" stroke-width="0.094"/>
          <path id="Trazado_1034736" data-name="Trazado 1034736" d="M3618.2,2800l1.257-1.257c2.18,2.6,5.281,4.024,8.383,5.281,5.114,2.431,10.981,2.431,16.6,2.767a41.56,41.56,0,0,1-9.137.671c-4.527-.083-8.8-2.85-13.328-1.509a88.558,88.558,0,0,0,10.143,4.107c3.018,1.174,6.036-.838,9.053-1.257a71.029,71.029,0,0,0,7.209-2.1c.083.671.083,1.341.167,2.011a105.365,105.365,0,0,1-12.322,2.179c3.688,1.174,7.544.67,11.4.5a9.342,9.342,0,0,1,1.592.167c-.587.336-1.173.754-1.76,1.09-6.539,1.677-13.161-.168-19.7-.084,6.539,3.018,13.915,2.179,20.873,1.676a6,6,0,0,1-.083,1.174c-5.952,1.173-12.323,1.509-18.023-.587-3.772-1.341-7.628-2.263-11.4-3.521-.084-.838-.084-1.592-.168-2.347,3.521,1.51,7.377,3.1,11.233,1.928a34.715,34.715,0,0,1-11.4-4.61c-.084-.5-.336-1.509-.42-1.928.42-.5.755-.922,1.174-1.425,1.174,1.257,2.934.838,4.443,1.006A44.015,44.015,0,0,0,3618.2,2800Z" transform="translate(-3111.22 -2426.212)" fill="#fde1b9" stroke="#fde1b9" stroke-width="0.094"/>
          <path id="Trazado_1034737" data-name="Trazado 1034737" d="M3315.208,2829.861c4.275,0,8.216-2.347,12.407-2.012-1.006.754-1.928,1.593-2.85,2.431l-.419-.168c-2.1-1.173-4.611.084-6.79.252-8.886,2.1-18.107,1.341-27.16.167,5.952,4.023,13.747.838,19.783,4.527,3.018,1.677,3.437,5.533,3.689,8.634a148.721,148.721,0,0,1-.168,18.358,10.338,10.338,0,0,1-5.113,8.635c-4.61,2.934-10.228,2.515-15.425,2.515,7.712,2.011,16.012,2.766,23.891.922,3.6-.922,8.047-2.6,8.8-6.79a9.318,9.318,0,0,1,6.371,5.365,18.463,18.463,0,0,1-9.724,5.03c-10.814,1.844-22.214,2.85-32.944-.251-3.437-1.006-6.371-3.018-9.305-4.946.839-3.772,4.695-4.695,7.461-6.707,1.592-2.6,1.592-5.784,2.179-8.718a10.253,10.253,0,0,0,.168-1.593c.335-9.053-.5-18.107-1.173-27.076A73.307,73.307,0,0,0,3315.208,2829.861Z" transform="translate(-2836.225 -2449.871)" fill="#a35c32" stroke="#a35c32" stroke-width="0.094"/>
          <path id="Trazado_1034738" data-name="Trazado 1034738" d="M3521.686,2826.529c.168-.084.5-.168.671-.252.335,0,.922-.083,1.173-.083l1.006.335-.67.5c-1.593.754-3.269,3.269-5.114,2.012C3519.757,2828.121,3520.68,2827.283,3521.686,2826.529Z" transform="translate(-3030.296 -2448.549)" fill="#fefffe" stroke="#fefffe" stroke-width="0.094"/>
          <path id="Trazado_1034739" data-name="Trazado 1034739" d="M1648.465,2827.207c5.449-.252,10.814-1.089,16.178-1.089,1.677-.168,3.018.921,4.275,1.844a11.659,11.659,0,0,1-.5,1.593c-.922,2.515-2.683,5.2-1.509,7.964,1.76,4.108,6.119,6.371,10.227,7.544a90.163,90.163,0,0,0,22.717,2.766c11.82-.167,23.555,1.426,35.291,3.018,9.472,1.593,19.028,2.6,28.417,4.274,7.544,1.258,15,3.186,22.633,4.192,9.724,1.005,19.531,1.089,29.339,1.173,6.706-.083,13.412.755,20.034,0,1.593.252,3.185.671,4.778,1.006a187.7,187.7,0,0,1-25.567,4.61c-7.8.838-15.508,2.264-23.22,3.353a149.777,149.777,0,0,0-20.957,4.275c-6.119,1.76-11.652,5.281-17.939,6.454a29.389,29.389,0,0,1-16.094-1.677c-6.874-2.515-12.49-7.712-19.615-9.639-8.047-2.1-16.346-2.431-24.561-2.515-4.527-.167-9.388.755-13.664-1.09-5.03-2.347-7.125-7.963-11.484-11.148-4.611-3.437-9.892-5.952-15.089-8.467-7.712-3.6-16.262-4.862-24.561-6.287-6.2-.922-12.155-3.1-18.19-4.863C1622.059,2830.979,1635.472,2830.142,1648.465,2827.207Z" transform="translate(-1476.621 -2448.474)" fill="#844827" stroke="#844827" stroke-width="0.094"/>
          <path id="Trazado_1034740" data-name="Trazado 1034740" d="M953.857,2835.647c9.137-4.107,19.867-.838,27.746,4.443,6.2,4.443,12.993,9.305,21.124,8.8,4.108.419,7.628-3.018,11.652-1.76-4.275,1.928-6.958,5.952-8.718,10.143-1.341,3.521-1.593,7.293-2.263,10.981-2.347-.754-1.844-3.521-1.844-5.449.084-4.862,3.018-8.8,5.113-12.909-4.024,2.682-5.113,7.711-6.538,11.987-4.107-1.089-8.215-2.6-12.49-2.6-5.2-.083-10.059,2.012-15.172,2.264a30.5,30.5,0,0,1-19.7-5.785,4.575,4.575,0,0,1-1.76-3.856c.084-4.442,1.593-9.136,5.2-11.987,3.1-2.6,7.293-3.269,11.149-4.107-.168-.335-.587-1.006-.754-1.258-5.03,1.174-10.478,2.682-13.58,7.125-3.018,3.772-3.521,8.8-3.6,13.412-1.677-.419-3.353-.838-5.03-1.342C943.714,2846.544,947.067,2838.748,953.857,2835.647Z" transform="translate(-935.415 -2454.733)" fill="#874a27" stroke="#874a27" stroke-width="0.094"/>
          <path id="Trazado_1034741" data-name="Trazado 1034741" d="M942.79,2836.834c2.6-2.431,4.443-7.041,8.55-6.79,16.849.167,33.7,0,50.464,0,8.634,0,17.268-.084,25.9,0,13.58.167,27.16-.335,40.656.084-12.993,2.934-26.322,3.772-39.231,7.293l-.755,2.514c5.952,2.515,12.406,3.772,18.777,4.862a136.805,136.805,0,0,1,25.651,7.042c6.958,2.766,13.748,6.706,18.023,12.993,2.6,3.772,6.706,6.623,11.4,6.706-5.365,1.258-9.724,4.61-14.586,7.042-7.125,3.52-15.424,3.52-23.052,2.514-3.185-.586-6.706-1.173-9.221-3.52a2.383,2.383,0,0,1,.671-3.94c5.113-3.018,11.568-2.179,16.765-5.113,2.263-1.258,4.107-3.94,3.353-6.622-1.09-4.527-5.03-7.545-8.969-9.389-7.8-3.772-16.849-3.6-25.148-1.677-.335.419-1.006,1.174-1.341,1.509,7.377-.922,15-2.431,22.3.084,4.61,1.509,9.3,4.359,11.317,8.969,1.089,2.012-.084,4.275-1.844,5.365-5.533,3.52-12.742,2.431-18.19,6.2-2.012,1.342-1.593,4.359,0,5.784,2.263,2.264,5.533,3.1,8.55,3.689,7.88,1.174,16.263,1.342,23.639-1.76,5.449-2.179,10.059-6.12,15.843-7.46,7.544-1.76,15.256-.754,22.884-.419a44.607,44.607,0,0,1,19.867,5.7c7.041,4.107,14.753,8.3,23.22,7.963,6.622-.168,12.574-3.437,18.609-5.7,13.58-4.777,28-6.035,42.164-8.131,10.813-1.593,21.627-2.934,32.273-5.616,8.131-1.927,16.094-4.527,24.393-5.784,13.915-2.347,28.333-2.263,41.829-6.622,2.012-.755,5.616-1.592,4.443-4.61a42.5,42.5,0,0,0-7.88-3.018c-8.383-2.347-16.849-4.527-25.316-6.455-7.8-2.85-15.508-6.119-23.136-9.472,1.089-.335,2.1-.754,3.185-1.006a21.718,21.718,0,0,1,3.353-.251q33.2.377,66.307.083l.671.084c.587,9.053,1.509,18.023,1.174,27.076-9.137,3.521-18.693,6.035-28.082,8.969-6.538,2.011-13.245,3.52-19.364,6.622-2.263,1.258-4.778,2.683-5.868,5.281-.839,2.85,1.76,5.2,4.107,6.287,4.694,2.1,9.975,2.6,14.837,4.275-18.777,1.006-37.554.251-56.331.419-22.969-.083-45.853-.083-68.821,0-14.586.168-29.088-.5-43.673.084-20.118-.167-40.236,0-60.355,0-18.693-.419-37.47.168-56.163-.084-44.68.084-89.359-.083-134.038,0,7.125-8.382,14.669-16.346,22.13-24.561a43.17,43.17,0,0,0,14.251,1.677c5.365,1.006,10.9.335,16.262,1.257,5.533.671,10.562,3.521,16.179,4.108l.67.084c4.946,1.006,9.891,0,14.837.167,6.874,2.264,13.412,6.036,20.873,6.287,10.646,3.269,22.046,5.616,33.111,2.766,2.1-.754,6.036-.754,5.2-3.939-.754-.251-1.425-.419-2.1-.587-9.221-1.508-18.526-2.682-27.327-5.784l-.168-.167c3.521-.335,6.622-2.515,10.227-2.012,6.455.671,12.574,3.772,19.2,3.353,4.862-.335,9.808-1.174,14.083-3.6l-.754-1.426c-3.6-1.257-7.46-1.592-11.317-2.1-6.874-1.593-13.831-2.934-20.789-4.191-6.2-1.844-12.49-2.933-18.777-4.275-3.94-.838-7.964,0-11.987-.418-2.012-.168-3.353-1.76-4.778-3.1a14.746,14.746,0,0,0-5.533-2.347,11.375,11.375,0,0,0-4.862-6.287c-4.024-1.258-7.628,2.263-11.652,1.76C955.867,2846.138,949.077,2841.277,942.79,2836.834Z" transform="translate(-896.602 -2451.478)" fill="#c68a5a" stroke="#c68a5a" stroke-width="0.094"/>
          <path id="Trazado_1034742" data-name="Trazado 1034742" d="M2042.075,2831.323a61.02,61.02,0,0,1,14.083.587c13.58,2.18,25.567,10.143,39.314,11.316,8.8.755,17.6-.922,26.238-2.515,3.6,2.263,8.048,2.263,12.071,3.437,4.443,1.341,9.053,2.766,12.658,5.952a5.32,5.32,0,0,1,.084,7.963c-3.6,4.611-9.64,5.7-15.089,6.539-6.622.754-13.329-.083-20.035,0a264,264,0,0,1-29.339-1.174c-7.628-.921-15.088-2.934-22.633-4.191-9.388-1.76-19.029-2.682-28.417-4.274-11.652-1.593-23.471-3.27-35.291-3.018a90.191,90.191,0,0,1-22.717-2.766,18.432,18.432,0,0,0,6.455-8.048,7.939,7.939,0,0,1,1.341-.335c.587-2.011,2.264-3.269,3.521-4.777a16.772,16.772,0,0,0,.922-3.94c.5,2.6-.083,6.455,2.934,7.712,6.538,3.018,13.916,3.1,20.957,3.354a217.2,217.2,0,0,0,28.585-1.76c1.509-.252,3.269-.419,4.443-1.676A69.961,69.961,0,0,0,2042.075,2831.323Z" transform="translate(-1772.49 -2452.59)" fill="#603218" stroke="#603218" stroke-width="0.094"/>
          <path id="Trazado_1034743" data-name="Trazado 1034743" d="M3511.748,2830.79c1.845,1.258,3.438-1.257,5.114-2.011,4.275,0,8.55.083,12.825.083l.5-.419c.084.5.335,1.425.419,1.928.084.671.168,2.012.168,2.682a22.187,22.187,0,0,0,.167,2.347c0,.5.083,1.006.083,1.593l-1.173.251c.251.419.922,1.173,1.173,1.592q-.125,1.132-.25,2.263c-.168.587-.419,1.76-.587,2.348a35.683,35.683,0,0,0-7.125,4.61,14.121,14.121,0,0,0-2.85,4.694c-3.354.168-6.706.168-10.143.168-.251-7.544,1.173-14.921,1.173-22.466Z" transform="translate(-3023.209 -2450.38)" fill="#c58b5d" stroke="#c58b5d" stroke-width="0.094"/>
          <path id="Trazado_1034744" data-name="Trazado 1034744" d="M3190.215,2831.257c3.689-.251,7.461-.335,11.149-.251a4.355,4.355,0,0,1,2.934,1.341c18.61,16.011,37.554,31.686,56.247,47.613,3.772,3.186,7.8,6.12,11.317,9.64-18.777.5-37.554,0-56.331.252h-107.3c-10.227.084-20.538-.671-30.764.335-5.7-4.024-12.993-4.024-19.2-6.622-1.76-.755-4.191-2.515-3.017-4.694,2.431-3.856,7.209-5.114,11.148-6.706,13.245-4.778,27.16-7.209,40.154-12.658-.587,2.934-.587,6.119-2.18,8.718-2.682,2.012-6.622,2.934-7.46,6.706,0,1.844-.167,4.024,1.425,5.281,2.85,2.264,6.455,3.1,9.976,4.024a74.452,74.452,0,0,0,26.908.67c4.443-.838,9.22-1.844,12.741-4.946,1.425-1.174.922-3.185.839-4.778-1.09-2.767-3.605-4.443-6.371-5.365-2.263-4.108-2.515-8.886-2.682-13.413,3.186-.083,6.37-.083,9.556-.167-.5,3.856,3.437,5.868,6.538,6.958,11.987,3.94,25.232,3.521,37.219-.168,3.185-1.257,7.293-3.1,7.712-6.957-.586-2.347-2.263-4.108-3.772-5.868a60,60,0,0,0-6.706-5.281v-1.928c-.419.084-1.341.251-1.761.336.335-.336,1.006-.922,1.258-1.258l.083-.67a5.922,5.922,0,0,1,.084-1.174,19.382,19.382,0,0,1-1.173-1.593c.587-.336,1.173-.755,1.76-1.09a9.224,9.224,0,0,1-1.593-.168c.335-.921.67-1.76.922-2.682-.083-.67-.083-1.341-.167-2.012a70.857,70.857,0,0,1-7.21,2.1,45.779,45.779,0,0,0-5.868-1.341,41.933,41.933,0,0,0,9.138-.67c1.173-.084,2.431-.168,3.6-.168.419-.167.671-.922.838-1.341m-7.544,39.231c.252.419.671,1.341.922,1.76l-.838-.587c.252,1.844-.167,4.527,1.928,5.533,4.778,2.6,10.394,3.1,15.759,3.269,6.035,0,12.406,0,17.855-2.934,2.012-.922,1.509-3.521,1.844-5.2l-1.174.671c.922-.922,1.509-2.515.168-3.353-4.443-3.353-10.4-3.353-15.676-3.772C3196.418,2866.045,3188.2,2865.458,3182.671,2870.488Z" transform="translate(-2652.889 -2452.44)" fill="#c68a5a" stroke="#c68a5a" stroke-width="0.094"/>
          <path id="Trazado_1034745" data-name="Trazado 1034745" d="M953.385,2845.018c3.1-4.443,8.55-5.951,13.58-7.125.168.335.587,1.006.754,1.257-3.856.839-8.047,1.425-11.149,4.108-3.6,2.85-5.113,7.544-5.2,11.987a4.475,4.475,0,0,0,1.76,3.855,30.5,30.5,0,0,0,19.7,5.784c5.113-.251,9.975-2.347,15.173-2.263,4.275.084,8.383,1.593,12.49,2.6,1.425-4.359,2.515-9.3,6.538-11.987-2.1,4.108-4.946,8.131-5.113,12.909,0,1.928-.5,4.611,1.844,5.449.671-3.688.922-7.46,2.263-10.981,1.76-4.191,4.443-8.3,8.718-10.143a11.375,11.375,0,0,1,4.862,6.287c-4.946-1.593-8.131,3.688-9.221,7.712-.922,3.94-1.006,8.886,2.85,11.317-2.263,1.593-4.778,3.1-7.628,2.347l-.671-.083c-4.527-5.868-12.155-8.466-19.364-8.048a88.346,88.346,0,0,0-13.077,2.682,41.048,41.048,0,0,1-14.25-1.677,20.042,20.042,0,0,1-10.311-6.622c-1.676-2.1-2.347-4.778-3.185-7.293,1.677.5,3.353,1.006,5.029,1.342C949.948,2853.82,950.367,2848.79,953.385,2845.018Z" transform="translate(-935.782 -2458.07)" fill="#4a2711" stroke="#4a2711" stroke-width="0.094"/>
          <path id="Trazado_1034746" data-name="Trazado 1034746" d="M2771.3,2845.826a248.847,248.847,0,0,0,30.01-8.383c7.628,3.27,15.341,6.539,23.136,9.472,1.76,3.27,5.281,5.2,6.37,8.886.251,2.934-2.431,4.862-4.275,6.706.419.084,1.258.252,1.76.336a218.676,218.676,0,0,0-34.62,6.287c-2.6.67-5.2,1.257-7.8,1.676-1.593-.335-3.185-.754-4.778-1.006,5.448-.838,11.484-1.928,15.089-6.539a5.449,5.449,0,0,0-.084-7.963c-3.521-3.1-8.215-4.611-12.658-5.952C2779.349,2848,2774.906,2848.089,2771.3,2845.826Z" transform="translate(-2422.082 -2457.704)" fill="#713e1f" stroke="#713e1f" stroke-width="0.094"/>
          <path id="Trazado_1034747" data-name="Trazado 1034747" d="M3362.312,2838.068c2.179-.168,4.694-1.509,6.79-.251,0,7.46-1.425,14.921-1.174,22.465v1.509c.168,4.526.419,9.3,2.683,13.412-.754,4.191-5.114,5.868-8.8,6.79-7.879,1.844-16.095,1.09-23.89-.922,5.2,0,10.814.419,15.424-2.515a10.151,10.151,0,0,0,5.113-8.634,148.976,148.976,0,0,0,.168-18.358c-.251-3.186-.67-6.958-3.689-8.634-6.035-3.689-13.831-.5-19.782-4.527C3344.205,2839.409,3353.426,2840.164,3362.312,2838.068Z" transform="translate(-2880.898 -2457.575)" fill="#713d1c" stroke="#713d1c" stroke-width="0.094"/>
          <path id="Trazado_1034748" data-name="Trazado 1034748" d="M3638,2836.258c4.443-1.341,8.8,1.342,13.328,1.509a45.783,45.783,0,0,1,5.868,1.341c-3.018.419-6.035,2.431-9.053,1.257A95.1,95.1,0,0,1,3638,2836.258Z" transform="translate(-3127.332 -2456.435)" fill="#9b6237" stroke="#9b6237" stroke-width="0.094"/>
          <path id="Trazado_1034749" data-name="Trazado 1034749" d="M3620.9,2839.243a37.473,37.473,0,0,0,11.4,4.61c-3.856,1.174-7.712-.335-11.233-1.928C3620.985,2841.255,3620.9,2839.914,3620.9,2839.243Z" transform="translate(-3113.417 -2459.168)" fill="#a25f34" stroke="#a25f34" stroke-width="0.094"/>
          <path id="Trazado_1034750" data-name="Trazado 1034750" d="M3714.5,2855.373c4.107-.586,8.215-1.257,12.323-2.18-.252.922-.587,1.76-.922,2.682C3722.046,2856.043,3718.189,2856.63,3714.5,2855.373Z" transform="translate(-3189.582 -2470.52)" fill="#95562e" stroke="#95562e" stroke-width="0.094"/>
          <path id="Trazado_1034751" data-name="Trazado 1034751" d="M3622.785,2867.835c0-.5-.083-1.09-.083-1.593,3.772,1.258,7.628,2.263,11.4,3.521,5.784,2.1,12.155,1.844,18.022.586l-.083.671a17.757,17.757,0,0,0-1.258,1.257C3641.311,2874.291,3631.419,2871.859,3622.785,2867.835Z" transform="translate(-3114.883 -2481.139)" fill="#9a5e37" stroke="#9a5e37" stroke-width="0.094"/>
          <path id="Trazado_1034752" data-name="Trazado 1034752" d="M1604.452,2873.708l.754-2.515c6.035,1.844,11.987,3.94,18.19,4.862,8.382,1.341,16.849,2.6,24.561,6.287,5.2,2.515,10.478,5.03,15.089,8.467,4.359,3.185,6.455,8.8,11.484,11.148,4.275,1.845,9.137.922,13.664,1.09,8.215.083,16.6.419,24.561,2.514,7.125,1.928,12.742,7.125,19.615,9.64a29.388,29.388,0,0,0,16.094,1.676c6.287-1.257,11.82-4.694,17.939-6.454a149.81,149.81,0,0,1,20.956-4.275c7.712-1.089,15.424-2.6,23.22-3.353a190.156,190.156,0,0,0,25.567-4.61c2.6-.419,5.2-1.006,7.8-1.677a222.291,222.291,0,0,1,34.62-6.287c9.892-1.509,20.286-1.844,29.423-6.371,1.174,2.934-2.431,3.772-4.443,4.611-13.5,4.359-27.914,4.359-41.829,6.622-8.3,1.257-16.262,3.856-24.394,5.784-10.562,2.683-21.459,4.024-32.273,5.617-14.167,2.179-28.585,3.353-42.165,8.131-6.036,2.347-11.987,5.533-18.61,5.7-8.466.335-16.094-3.772-23.22-7.964a44.622,44.622,0,0,0-19.867-5.7c-.084-.335-.335-1.006-.419-1.341-7.46-.67-15.089-1.257-22.549.168-4.694-.084-8.8-2.934-11.4-6.706-4.359-6.287-11.065-10.227-18.023-12.993a136.89,136.89,0,0,0-25.651-7.042C1616.858,2877.48,1610.488,2876.223,1604.452,2873.708Z" transform="translate(-1472.593 -2485.167)" fill="#522b13" stroke="#522b13" stroke-width="0.094"/>
          <path id="Trazado_1034753" data-name="Trazado 1034753" d="M3669.051,2873.431c6.539-.084,13.245,1.76,19.7.083a19.4,19.4,0,0,1,1.175,1.593C3682.967,2875.61,3675.59,2876.449,3669.051,2873.431Z" transform="translate(-3152.598 -2486.986)" fill="#97582e" stroke="#97582e" stroke-width="0.094"/>
          <path id="Trazado_1034754" data-name="Trazado 1034754" d="M3616.852,2875.044l1.173-.251c8.634,4.023,18.526,6.455,28,4.527.419-.084,1.342-.252,1.761-.335v1.928c-4.778,4.192-11.484,4.61-17.52,4.107-4.526-.5-9.138-1.341-13.077-3.688.167-.586.419-1.76.586-2.347,7.712,5.2,17.939,5.784,26.657,2.85a67.945,67.945,0,0,1-26.405-5.113C3617.773,2876.218,3617.1,2875.463,3616.852,2875.044Z" transform="translate(-3110.122 -2488.096)" fill="#fde2b9" stroke="#fde2b9" stroke-width="0.094"/>
          <path id="Trazado_1034755" data-name="Trazado 1034755" d="M3621.8,2886.956l.252-2.263a67.655,67.655,0,0,0,26.4,5.113C3639.741,2892.74,3629.6,2892.153,3621.8,2886.956Z" transform="translate(-3114.15 -2496.152)" fill="#945c33" stroke="#945c33" stroke-width="0.094"/>
          <path id="Trazado_1034756" data-name="Trazado 1034756" d="M3056.6,2888.293c8.466,1.928,16.933,4.107,25.316,6.454a39.126,39.126,0,0,1,7.88,3.018c-9.137,4.61-19.448,4.945-29.423,6.37-.419-.084-1.257-.251-1.76-.335,1.844-1.844,4.527-3.772,4.275-6.706C3061.883,2893.49,3058.362,2891.478,3056.6,2888.293Z" transform="translate(-2654.236 -2499.082)" fill="#884c29" stroke="#884c29" stroke-width="0.094"/>
          <path id="Trazado_1034757" data-name="Trazado 1034757" d="M3580.4,2912.672a35.679,35.679,0,0,1,7.125-4.61c3.939,2.347,8.55,3.185,13.077,3.688,6.035.5,12.742.084,17.52-4.107a50.118,50.118,0,0,1,6.706,5.281c-1.509,1.844-3.1,3.772-5.364,4.611-7.8,3.185-16.515,3.688-24.9,2.682C3589.287,2919.211,3583.419,2917.451,3580.4,2912.672Z" transform="translate(-3080.462 -2514.827)" fill="#a35e33" stroke="#a35e33" stroke-width="0.094"/>
          <path id="Trazado_1034758" data-name="Trazado 1034758" d="M1297.1,2945.584c1.09-4.024,4.275-9.3,9.221-7.712a13.5,13.5,0,0,1,5.533,2.347c-4.359-.5-6.287,3.856-7.964,7.042-.167.335-.587,1.09-.838,1.509-1.844-.587-3.688-1.09-5.532-1.76C1297.437,2946.59,1297.186,2945.919,1297.1,2945.584Z" transform="translate(-1222.496 -2539.189)" fill="#8b9aad" stroke="#8b9aad" stroke-width="0.094"/>
          <path id="Trazado_1034759" data-name="Trazado 1034759" d="M1671.943,2937.467c8.215-1.928,17.352-2.012,25.148,1.677,3.94,1.928,7.88,4.946,8.969,9.389.755,2.682-1.174,5.281-3.353,6.622-5.2,2.934-11.652,2.18-16.765,5.113a2.428,2.428,0,0,0-.671,3.94c2.515,2.347,5.952,2.934,9.221,3.521,7.712,1.006,16.011,1.006,23.052-2.515,4.862-2.431,9.221-5.868,14.586-7.042,7.46-1.425,15.089-.754,22.549-.167.083.335.335,1.006.419,1.341-7.628-.419-15.34-1.341-22.885.419-5.784,1.342-10.394,5.281-15.843,7.46-7.461,3.185-15.843,2.934-23.639,1.76-3.017-.587-6.287-1.425-8.55-3.689-1.509-1.509-2.012-4.526,0-5.784,5.448-3.772,12.657-2.683,18.19-6.2,1.76-1.09,2.934-3.353,1.844-5.365-2.012-4.611-6.706-7.461-11.316-8.97-7.209-2.515-14.921-1.006-22.3-.084A7.3,7.3,0,0,0,1671.943,2937.467Z" transform="translate(-1526.421 -2538.028)" fill="#fde2b9" stroke="#fde2b9" stroke-width="0.094"/>
          <path id="Trazado_1034760" data-name="Trazado 1034760" d="M3562.767,2939.338a18.06,18.06,0,0,1,2.851-4.695c3.018,4.862,8.8,6.538,14.083,7.544,8.3,1.006,17.017.5,24.9-2.683,2.264-.838,3.856-2.766,5.365-4.61,1.509,1.76,3.185,3.521,3.772,5.867-.419,3.856-4.526,5.7-7.712,6.958-11.987,3.688-25.231,4.108-37.219.167-3.1-1.09-6.958-3.1-6.539-6.957C3562.433,2940.427,3562.684,2939.673,3562.767,2939.338Z" transform="translate(-3065.678 -2536.797)" fill="#72401f" stroke="#72401f" stroke-width="0.094"/>
          <path id="Trazado_1034761" data-name="Trazado 1034761" d="M1333.215,2958.16c1.677-3.186,3.6-7.544,7.964-7.042-2.18,3.185-5.365,5.616-6.706,9.389,6.371.754,12.574,2.682,19.112,2.6,3.94,0,7.628-1.173,11.484-1.593-2.347,3.437-6.874,4.024-10.73,4.359-6.622.167-12.993-2.263-19.448-3.1,3.437,2.431,7.628,3.521,11.484,5.114,10.646,4.192,21.376,9.64,33.111,9.472,5.449.084,10.73-1.342,16.179-1.928.838,3.185-3.186,3.185-5.2,3.94-10.981,2.85-22.465.5-33.112-2.766-4.443-2.18-9.137-3.856-13.58-5.952-2.934-1.258-5.868-2.85-9.137-2.682A20.613,20.613,0,0,1,1333.215,2958.16Z" transform="translate(-1251.82 -2550.171)" fill="#353536" stroke="#353536" stroke-width="0.094"/>
          <path id="Trazado_1034762" data-name="Trazado 1034762" d="M1347.008,2951.743c1.341,1.258,2.682,2.934,4.778,3.1,3.94.419,7.963-.419,11.987.419,6.287,1.258,12.657,2.431,18.777,4.275,3.856,2.347,8.551,2.515,12.825,3.6a28.181,28.181,0,0,0,7.964.586c3.772.5,7.628.839,11.316,2.1-4.191.084-8.215,1.844-12.49,1.76a51.964,51.964,0,0,1-14.753-2.6c-3.353-1.006-6.958-1.928-10.395-1.006-2.431.587-4.359,2.347-6.119,4.107.251.335.671,1.006.922,1.425l.168.168c2.179,2.766,5.952,2.766,9.137,3.6a83.167,83.167,0,0,0,18.274,2.18,15.274,15.274,0,0,1,2.1.586c-5.449.5-10.73,2.012-16.178,1.928-11.736.168-22.466-5.281-33.111-9.473-3.856-1.592-8.047-2.682-11.484-5.113,6.538.838,12.825,3.269,19.448,3.1,3.856-.419,8.383-.922,10.729-4.359-3.856.5-7.628,1.593-11.484,1.593-6.455.168-12.741-1.844-19.112-2.6,1.341-3.772,4.527-6.287,6.706-9.389m9.891,5.533c.168.419.587,1.341.755,1.76a12.324,12.324,0,0,0-1.76.084c1.677,2.682,6.874,3.269,7.88-.336-.419,0-1.174.084-1.593.084a10.251,10.251,0,0,0,.251-2.179c-1.09-.838-2.6-.67-3.856-.838A14.871,14.871,0,0,0,1356.9,2957.276Z" transform="translate(-1257.649 -2550.711)" fill="#838c95" stroke="#838c95" stroke-width="0.094"/>
          <path id="Trazado_1034763" data-name="Trazado 1034763" d="M3511.1,2960.01c3.353,0,6.706,0,10.143-.168-.168.42-.419,1.174-.5,1.509-3.186.084-6.371.084-9.557.168A9.72,9.72,0,0,1,3511.1,2960.01Z" transform="translate(-3024.072 -2557.303)" fill="#fef3d3" stroke="#fef3d3" stroke-width="0.094"/>
          <path id="Trazado_1034764" data-name="Trazado 1034764" d="M1429.4,2974.852c.419-.335,1.174-1.173,1.593-1.509,1.341.168,2.766,0,3.856.838a9.144,9.144,0,0,1-.251,2.179c-1.509.084-2.934.084-4.443.167A7.775,7.775,0,0,1,1429.4,2974.852Z" transform="translate(-1330.152 -2568.288)" fill="#b2bacc" stroke="#b2bacc" stroke-width="0.094"/>
          <path id="Trazado_1034765" data-name="Trazado 1034765" d="M3072.13,2985.462c9.389-2.934,18.861-5.449,28.082-8.97a10.292,10.292,0,0,0-.168,1.593c-12.993,5.532-26.909,7.88-40.154,12.658-4.023,1.593-8.8,2.767-11.148,6.706-1.174,2.18,1.257,3.94,3.018,4.694,6.287,2.6,13.5,2.6,19.2,6.623a27.442,27.442,0,0,1,7.8,12.239c1.76,6.455,3.6,13.328,2.766,20.118-1.257-1.677-1.174-3.856-1.425-5.868a54.737,54.737,0,0,0-3.186-14.585c-1.928-5.365-5.281-10.982-11.065-12.742-4.862-1.76-10.142-2.179-14.837-4.275-2.348-1.09-4.946-3.437-4.108-6.287,1.006-2.515,3.521-4.024,5.868-5.281C3058.886,2988.983,3065.591,2987.474,3072.13,2985.462Z" transform="translate(-2646.21 -2570.851)" fill="#fde2b9" stroke="#fde2b9" stroke-width="0.094"/>
          <path id="Trazado_1034766" data-name="Trazado 1034766" d="M1297.646,2991.859c-3.856-2.431-3.772-7.376-2.85-11.316a7.85,7.85,0,0,0,.5,1.257q2.766,1.006,5.533,1.761c.167-.335.587-1.09.838-1.509a19.312,19.312,0,0,0,1.425,9.725C1301.25,2991.859,1299.406,2991.943,1297.646,2991.859Z" transform="translate(-1220.191 -2574.147)" fill="#717783" stroke="#717783" stroke-width="0.094"/>
          <path id="Trazado_1034767" data-name="Trazado 1034767" d="M1423.552,2989.878a12.321,12.321,0,0,0,1.76-.084c1.509,0,2.934-.083,4.443-.168.419,0,1.174-.083,1.593-.083C1430.425,2993.148,1425.228,2992.56,1423.552,2989.878Z" transform="translate(-1325.391 -2581.471)" fill="#2f2f2d" stroke="#2f2f2d" stroke-width="0.094"/>
          <path id="Trazado_1034768" data-name="Trazado 1034768" d="M1566.652,2993.143c6.958,1.257,13.915,2.6,20.789,4.191a36.046,36.046,0,0,1-7.964-.587C1575.2,2995.658,1570.592,2995.49,1566.652,2993.143Z" transform="translate(-1441.835 -2584.4)" fill="#a2a5a5" stroke="#a2a5a5" stroke-width="0.094"/>
          <path id="Trazado_1034769" data-name="Trazado 1034769" d="M1093.7,3012.29a86.131,86.131,0,0,1,13.077-2.682c7.209-.419,14.837,2.263,19.364,8.047-5.616-.587-10.562-3.437-16.179-4.107C1104.6,3012.708,1099.066,3013.38,1093.7,3012.29Z" transform="translate(-1056.986 -2597.762)" fill="#87522d" stroke="#87522d" stroke-width="0.094"/>
          <path id="Trazado_1034770" data-name="Trazado 1034770" d="M1504.552,3019.731a13.914,13.914,0,0,1,6.119-4.108c3.437-1.006,7.042,0,10.395,1.006a51.948,51.948,0,0,0,14.753,2.6c4.275.084,8.3-1.676,12.49-1.76l.755,1.425c-4.275,2.431-9.221,3.27-14.083,3.6-6.622.335-12.741-2.682-19.2-3.353-3.6-.5-6.79,1.677-10.227,2.012A11.408,11.408,0,0,1,1504.552,3019.731Z" transform="translate(-1391.303 -2602.353)" fill="#383535" stroke="#383535" stroke-width="0.094"/>
          <path id="Trazado_1034771" data-name="Trazado 1034771" d="M3740.6,3022.221c5.533-5.03,13.748-4.443,20.789-4.778-1.005,1.09-1.928,2.18-2.934,3.186a18.191,18.191,0,0,0-6.288,1.509c2.934,3.185,7.461,2.179,11.234,2.347a3.973,3.973,0,0,0,.838.838c-1.257.084-2.515.168-3.856.336.335.5.754,1.006,1.09,1.509-3.605,0-7.125.168-10.73.251-3.269-.5-6.622-1.341-9.22-3.437C3741.271,3023.563,3740.852,3022.724,3740.6,3022.221Z" transform="translate(-3210.82 -2604.173)" fill="#fde2b9" stroke="#fde2b9" stroke-width="0.094"/>
          <path id="Trazado_1034772" data-name="Trazado 1034772" d="M3805.7,3017.893c5.281.419,11.233.5,15.676,3.772,1.341.754.754,2.431-.168,3.353-7.964,4.275-17.52,3.772-26.154,2.85,3.6-.168,7.125-.335,10.729-.252-.336-.5-.754-1.006-1.09-1.509,1.258-.084,2.516-.168,3.857-.335a7.869,7.869,0,0,0-.838-.839c1.089-.671,2.1-1.509,3.1-2.263a16.026,16.026,0,0,0-8.131-1.509Q3804.189,3019.4,3805.7,3017.893Z" transform="translate(-3255.127 -2604.539)" fill="#fcdcaa" stroke="#fcdcaa" stroke-width="0.094"/>
          <path id="Trazado_1034773" data-name="Trazado 1034773" d="M3802.7,3036.9a16.482,16.482,0,0,1,6.287-1.509,16.96,16.96,0,0,1,8.131,1.509,26.509,26.509,0,0,1-3.1,2.263c-3.939-.168-8.383.839-11.316-2.263m3.521.335a25.367,25.367,0,0,0,7.125.084A28.963,28.963,0,0,0,3806.222,3037.234Z" transform="translate(-3261.352 -2618.767)" fill="#2d241c" stroke="#2d241c" stroke-width="0.094"/>
          <path id="Trazado_1034774" data-name="Trazado 1034774" d="M1279.08,3041.242c1.76.084,3.521,0,5.365,0,3.269-.167,6.2,1.509,9.137,2.682,4.443,2.1,9.137,3.772,13.58,5.952-7.377-.168-13.915-4.024-20.873-6.287-4.946-.084-9.892.838-14.837-.168C1274.3,3044.344,1276.817,3042.835,1279.08,3041.242Z" transform="translate(-1201.625 -2623.529)" fill="#9b5f29" stroke="#9b5f29" stroke-width="0.094"/>
          <path id="Trazado_1034775" data-name="Trazado 1034775" d="M3821.6,3044.427a25.384,25.384,0,0,1,7.125.084A22.559,22.559,0,0,1,3821.6,3044.427Z" transform="translate(-3276.731 -2625.96)" fill="#c68a5a" stroke="#c68a5a" stroke-width="0.094"/>
          <path id="Trazado_1034776" data-name="Trazado 1034776" d="M1510.4,3047.593c8.8,3.1,18.19,4.275,27.327,5.784a84.392,84.392,0,0,1-18.274-2.18C1516.353,3050.442,1512.581,3050.359,1510.4,3047.593Z" transform="translate(-1396.063 -2628.707)" fill="#bfc5c5" stroke="#bfc5c5" stroke-width="0.094"/>
          <path id="Trazado_1034777" data-name="Trazado 1034777" d="M3741.051,3049.393l.838.587a18.213,18.213,0,0,0,9.22,3.436c8.718.922,18.275,1.425,26.154-2.85l1.174-.671c-.336,1.761.167,4.275-1.845,5.2-5.449,2.935-11.819,2.935-17.855,2.935-5.365-.168-10.981-.671-15.76-3.27C3740.8,3054,3741.3,3051.321,3741.051,3049.393Z" transform="translate(-3211.186 -2630.172)" fill="#2c231a" stroke="#2c231a" stroke-width="0.094"/>
          <path id="Trazado_1034778" data-name="Trazado 1034778" d="M3280.7,3067.843c2.934,1.928,5.868,4.024,9.3,4.946,10.729,3.1,22.13,2.1,32.944.251a17.633,17.633,0,0,0,9.724-5.03c.083,1.593.586,3.6-.838,4.778-3.521,3.1-8.3,4.107-12.742,4.946a72.639,72.639,0,0,1-26.909-.671c-3.437-.838-7.125-1.677-9.976-4.024C3280.614,3071.866,3280.7,3069.687,3280.7,3067.843Z" transform="translate(-2836.586 -2645.184)" fill="#6e3c1c" stroke="#6e3c1c" stroke-width="0.094"/>
          <path id="Trazado_1034779" data-name="Trazado 1034779" d="M898.4,3145.212c44.679-.084,89.359.083,134.038,0,18.693.251,37.47-.42,56.164.083,20.118,0,40.236-.167,60.355,0,14.5-.586,29.088.167,43.674-.083,22.969-.084,45.853-.084,68.821,0,18.777-.168,37.554.586,56.331-.42,5.784,1.76,9.137,7.377,11.065,12.742a126.849,126.849,0,0,1-13.831.168H912.149c-4.527-.168-9.053-.084-13.664-.084C898.486,3153.51,898.569,3149.4,898.4,3145.212Z" transform="translate(-898.067 -2707.8)" fill="#9a653c" stroke="#9a653c" stroke-width="0.094"/>
          <path id="Trazado_1034780" data-name="Trazado 1034780" d="M3176.3,3146.729c10.227-1.006,20.537-.335,30.764-.335h107.3c18.777-.168,37.554.251,56.332-.251h.67c-.084,4.191-.084,8.383-.084,12.574-4.443.5-8.886.083-13.329.167-30.178-.167-60.271,0-90.448-.083-27.831.083-55.577-.083-83.323.167C3182.5,3154.357,3180.074,3149.915,3176.3,3146.729Z" transform="translate(-2751.638 -2708.899)" fill="#9a653c" stroke="#9a653c" stroke-width="0.094"/>
          <path id="Trazado_1034781" data-name="Trazado 1034781" d="M971.64,3213.811q201.435-.126,402.869,0a127.162,127.162,0,0,0,13.831-.168,62.114,62.114,0,0,1,3.185,14.585c.168,2.012.168,4.191,1.425,5.868.838-6.79-1.006-13.58-2.766-20.118,27.746-.335,55.577-.084,83.323-.167,30.177.083,60.271-.084,90.448.083.251,8.467-.335,16.933.168,25.4-10.9.168-21.795,0-32.692.084h-28.5c-2.515,0-5.113-.084-7.628-.084-7.293,0-14.67.168-21.963,0-6.958,0-13.915.084-20.957,0-39.9.168-79.8.084-119.7.084-10.143.084-20.286-.252-30.429.084v2.179c-.251-.838-.419-1.677-.671-2.431q-107.129,0-214.26,0c-6.706.168-13.412,0-20.118.084-10.73.084-21.459.084-32.105.084-2.515.084-5.03.084-7.628.084-4.107-.084-8.3-.084-12.406-.084-6.287,0-12.574,0-18.861-.084-8.131.084-16.262-.168-24.394,0C971.389,3230.827,971.808,3222.277,971.64,3213.811Z" transform="translate(-957.642 -2763.825)" fill="#6d3c1e" stroke="#6d3c1e" stroke-width="0.094"/>
          <path id="Trazado_1034782" data-name="Trazado 1034782" d="M1482.637,3350.527c6.706,0,13.412.083,20.118-.084.335,24.478-.5,49.038.755,73.516.084,9.976,1.006,19.951,1.425,29.926-7.377.168-14.837.168-22.214.083C1482.3,3419.6,1481.966,3385.063,1482.637,3350.527Z" transform="translate(-1373.16 -2875.142)" fill="#3a3b3f" stroke="#3a3b3f" stroke-width="0.094"/>
          <path id="Trazado_1034783" data-name="Trazado 1034783" d="M1592.108,3350.893q107.13.125,214.26,0c.251.838.419,1.592.671,2.431,3.018,13.58,5.7,27.16,8.047,40.907-13.245,4.359-27.411,8.886-41.41,5.449-9.221-2.431-18.861-2.1-28.166-.754-12.155,1.676-24.226,3.856-36.3,5.7-9.975,1.425-20.118,2.85-30.177,1.76-7.545-.838-15.592-2.515-22.969.335-6.706,2.682-13.077,7.209-16.514,13.747-2.683,5.2-.168,10.981,1.593,16.095,2.263,5.7,3.1,12.155,1.341,18.19-16.095-.251-32.189-.167-48.284-.083-.419-9.976-1.341-19.951-1.425-29.926C1591.521,3399.931,1592.36,3375.37,1592.108,3350.893Z" transform="translate(-1462.513 -2875.508)" fill="#4b2a10" stroke="#4b2a10" stroke-width="0.094"/>
          <path id="Trazado_1034784" data-name="Trazado 1034784" d="M3552.052,3350.893c6.958.083,13.915,0,20.957,0-1.174,35.039-2.18,69.995-3.353,105.034-2.851.083-5.7.083-8.634,0C3558.59,3420.887,3554.818,3385.932,3552.052,3350.893Z" transform="translate(-3057.393 -2875.508)" fill="#1c191a" stroke="#1c191a" stroke-width="0.094"/>
          <path id="Trazado_1034785" data-name="Trazado 1034785" d="M3782.451,3350.893c2.515,0,5.114,0,7.628.083.252,5.449,1.341,10.9,1.509,16.346a27.488,27.488,0,0,0-6.957-.251C3783.792,3361.706,3782.87,3356.341,3782.451,3350.893Z" transform="translate(-3244.873 -2875.508)" fill="#333434" stroke="#333434" stroke-width="0.094"/>
          <path id="Trazado_1034786" data-name="Trazado 1034786" d="M1102.7,3351.343c6.287,0,12.574,0,18.861.083.084,4.359-.838,8.634-.922,12.994,0,1.341,1.425,1.676,2.515,1.676a54.814,54.814,0,0,0,9.053-.587c.251,1.425.419,2.766.587,4.191-1.173,5.952-1.257,12.071-1.76,18.106-1.677,18.693-2.766,37.47-4.443,56.164-1.76,21.208-3.437,42.5-5.03,63.708-.5,8.131-1.844,16.095-2.012,24.226h-7.125c1.257-17.268,1.844-34.536,2.85-51.8,1.006-25.483,2.682-50.882,3.6-76.366.335-12.49,1.425-24.98,1.593-37.386-5.868-.168-11.652,0-17.52,0A148.964,148.964,0,0,1,1102.7,3351.343Z" transform="translate(-1064.221 -2875.874)" fill="#4e4e52" stroke="#4e4e52" stroke-width="0.094"/>
          <path id="Trazado_1034787" data-name="Trazado 1034787" d="M1200.374,3351.792c4.107,0,8.3,0,12.406.084a75.185,75.185,0,0,0-.587,13.748c-.167,1.509-.335,3.018-.587,4.527-.168-1.426-.419-2.851-.587-4.192a81.662,81.662,0,0,1-9.053.586c-1.09,0-2.431-.334-2.515-1.676C1199.536,3360.427,1200.458,3356.152,1200.374,3351.792Z" transform="translate(-1143.037 -2876.24)" fill="#434243" stroke="#434243" stroke-width="0.094"/>
          <path id="Trazado_1034788" data-name="Trazado 1034788" d="M1268.073,3351.426c2.515,0,5.03,0,7.628-.083-.168,4.527-.5,9.053-1.006,13.5a50.159,50.159,0,0,0-7.125.335A63.127,63.127,0,0,1,1268.073,3351.426Z" transform="translate(-1198.329 -2875.874)" fill="#343435" stroke="#343435" stroke-width="0.094"/>
          <path id="Trazado_1034789" data-name="Trazado 1034789" d="M3823.4,3351.343h10.143c.754,5.951,2.1,11.9,2.263,17.939-3.269-.251-6.454-.587-9.724-.838-.167,1.173-.335,2.431-.5,3.688-.251-1.509-.5-2.935-.67-4.443C3824.743,3362.24,3823.654,3356.875,3823.4,3351.343Z" transform="translate(-3278.197 -2875.874)" fill="#424243" stroke="#424243" stroke-width="0.094"/>
          <path id="Trazado_1034790" data-name="Trazado 1034790" d="M3843.432,3351.792h18.358c.335,6.288.251,12.658.671,18.945a152.581,152.581,0,0,0-16.346-.839c4.945,46.1,10.143,92.209,15.088,138.23,1.089,7.88,1.509,15.927,2.934,23.723-2.431,0-4.861,0-7.292-.083-2.934-18.777-4.779-37.638-7.544-56.415-3.1-25.735-6.622-51.386-9.975-77.12-1.426-8.55-2.18-17.269-3.772-25.818.167-1.257.251-2.431.5-3.688,3.27.251,6.455.586,9.725.838C3845.443,3363.7,3844.186,3357.744,3843.432,3351.792Z" transform="translate(-3288.083 -2876.24)" fill="#4d4e51" stroke="#4d4e51" stroke-width="0.094"/>
          <path id="Trazado_1034791" data-name="Trazado 1034791" d="M1206.251,3424.483a50.606,50.606,0,0,1,7.125-.335q-5.407,65.133-10.814,130.266c-.922,12.322-1.928,24.561-3.1,36.8h-7.209c.168-8.131,1.593-16.179,2.012-24.226,1.593-21.208,3.27-42.5,5.03-63.708,1.593-18.693,2.766-37.47,4.443-56.164.5-6.035.587-12.155,1.76-18.106A21.283,21.283,0,0,0,1206.251,3424.483Z" transform="translate(-1137.178 -2935.099)" fill="#3a3b3c" stroke="#3a3b3c" stroke-width="0.094"/>
          <path id="Trazado_1034792" data-name="Trazado 1034792" d="M1104.052,3432.017c5.868,0,11.652-.167,17.52,0-.168,12.49-1.257,24.98-1.593,37.386-.922,25.483-2.6,50.882-3.6,76.366-1.006,17.269-1.593,34.536-2.85,51.8h-5.784c-1.006-28.5-.838-57-1.844-85.419C1105.393,3485.415,1104.471,3458.674,1104.052,3432.017Z" transform="translate(-1065.408 -2941.459)" fill="#65676c" stroke="#65676c" stroke-width="0.094"/>
          <path id="Trazado_1034793" data-name="Trazado 1034793" d="M3794.152,3437.214a27.651,27.651,0,0,1,6.957.251c.168,1.509.42,2.934.671,4.443,1.593,8.55,2.346,17.184,3.772,25.818,3.353,25.734,6.874,51.386,9.975,77.12,2.767,18.777,4.61,37.722,7.544,56.415-1.928-.335-5.7,1.173-5.616-1.844C3809.66,3545.433,3802.283,3491.282,3794.152,3437.214Z" transform="translate(-3254.395 -2945.65)" fill="#393a3b" stroke="#393a3b" stroke-width="0.094"/>
          <path id="Trazado_1034794" data-name="Trazado 1034794" d="M3891.8,3448.849a133.5,133.5,0,0,1,16.346.838c2.1,53.649,3.856,107.3,5.867,161.03-1.424.083-2.85.167-4.191.251-1.425-7.879-1.844-15.843-2.934-23.723C3901.945,3541.058,3896.748,3494.953,3891.8,3448.849Z" transform="translate(-3333.854 -2955.19)" fill="#65676b" stroke="#65676b" stroke-width="0.094"/>
          <path id="Trazado_1034795" data-name="Trazado 1034795" d="M2059.668,3503.439a33.753,33.753,0,0,1,25.064,4.275c7.293,4.443,14.586,9.64,19.2,16.933,3.185,4.946.755,10.813-1.509,15.592-4.359,8.634-8.718,17.939-7.46,27.914-15,3.1-30.01,6.37-45.35,7.125-14.251.335-28.5.419-42.751.167-30.177.419-60.606,1.677-90.532-3.185-9.808-1.761-19.2-5.533-29.088-7.125-5.532-.922-10.981-2.767-16.6-3.018,1.341,2.012,3.856,2.264,6.035,2.766,7.125,1.425,14.25,2.934,21.292,4.778,8.047,2.012,16.01,4.778,24.309,5.532a395.864,395.864,0,0,0,52.727,2.431,20.14,20.14,0,0,1,6.371.754c-5.449.838-10.9.587-16.346.922-9.221.5-18.442.67-27.746.838-20.37,1.09-40.823.251-61.277.671-10.9-.084-21.795.335-32.776.67.5-1.173.922-2.347,1.341-3.521,1.76-6.035.922-12.406-1.341-18.19-1.844-5.029-4.359-10.813-1.593-16.095,3.437-6.455,9.808-11.065,16.514-13.747,7.376-2.851,15.34-1.174,22.968-.336,10.059,1.09,20.2-.251,30.177-1.76,12.155-1.844,24.142-3.94,36.3-5.7,9.3-1.341,18.945-1.676,28.166.754,14,3.437,28.166-1.089,41.41-5.448C2031.251,3512.66,2045.082,3506.792,2059.668,3503.439Z" transform="translate(-1664.595 -2998.966)" fill="#804524" stroke="#804524" stroke-width="0.094"/>
          <path id="Trazado_1034796" data-name="Trazado 1034796" d="M1736.653,3822.042c5.616.168,11.065,2.1,16.6,3.019,9.892,1.593,19.2,5.365,29.087,7.125,29.926,4.778,60.355,3.521,90.533,3.186,14.25.251,28.5.168,42.751-.167,15.34-.671,30.345-4.023,45.35-7.125.922,7.292,6.035,13.077,11.736,17.268,9.724,7.042,20.286,12.91,30.681,18.944,3.688,2.264,7.8,4.359,10.143,8.132-2.263,3.688-4.61,7.46-8.131,10.059a71.268,71.268,0,0,1-35.794,13.747c-6.622.5-13.412.334-19.615-2.011-9.389-3.521-18.442-8.383-28.5-9.3-7.293-.754-14.586,1.006-21.208,3.855-12.323,4.778-24.477,10.143-37.387,13.244-16.6,4.443-34.2,6.79-51.218,3.186-12.406-2.347-23.975-7.627-36.3-9.808-17.436-3.353-35.375-3.521-53.062-1.509-12.071,1.09-24.226,3.018-36.381,2.263-3.772-.083-6.958-2.179-10.143-3.855-.419-5.282,2.012-10.143,4.611-14.5,8.131-13.244,21.292-22.717,29-36.3,10.9-.335,21.795-.754,32.776-.67,20.453-.419,40.823.419,61.277-.671,9.221-.167,18.442-.335,27.747-.837,5.448-.335,10.981,0,16.346-.922a16.622,16.622,0,0,0-6.371-.754,395.386,395.386,0,0,1-52.727-2.431c-8.3-.755-16.262-3.521-24.31-5.533-7.041-1.844-14.167-3.353-21.292-4.778-2.347-.586-4.862-.838-6.2-2.851m112.579,15.593a9.724,9.724,0,0,0,3.521.586,170.028,170.028,0,0,1,22.633,0c5.281.335,10.562.084,15.843.754,5.03.586,10.059.083,15.089.67,6.706.755,13.412.251,20.118.5,1.174-.083,2.85.336,3.6-.921-6.454-.335-12.993.167-19.448-.335-7.041-.922-14.25-.252-21.292-1.174C1875.972,3837.216,1862.56,3837.048,1849.231,3837.635Z" transform="translate(-1530.608 -3258.892)" fill="#a45b31" stroke="#a45b31" stroke-width="0.094"/>
          <path id="Trazado_1034797" data-name="Trazado 1034797" d="M2607.052,3904.118c13.328-.587,26.657-.419,40.069.083,7.042.922,14.25.252,21.292,1.174,6.454.5,12.993,0,19.447.336-.754,1.257-2.347.754-3.6.922-6.706-.251-13.413.251-20.119-.5-5.029-.586-10.059-.084-15.088-.67-5.281-.67-10.562-.418-15.843-.754a170.114,170.114,0,0,0-22.633,0A10.352,10.352,0,0,1,2607.052,3904.118Z" transform="translate(-2288.428 -3325.375)" fill="#6c3c1e" stroke="#6c3c1e" stroke-width="0.094"/>
          <path id="Trazado_1034798" data-name="Trazado 1034798" d="M2014.1,4090.295l.335-.5c1.257,7.292-5.952,11.82-10.9,15.592-12.658,8.047-27.831,12.49-42.835,11.567-11.987-.587-21.962-8.3-33.531-10.729a40.32,40.32,0,0,0-23.722,2.1c-14,5.7-28.082,11.4-42.751,15-15,3.437-30.6,5.449-45.853,2.767-13.161-1.928-25.4-7.629-38.476-10.143a167.967,167.967,0,0,0-54.571-1.593c-9.724,1.006-19.531,2.263-29.339,2.347-4.61-.084-9.64-.168-13.747-2.766-1.425-.839-1.844-2.515-2.263-3.94,3.185,1.676,6.454,3.688,10.143,3.856,12.155.837,24.31-1.091,36.381-2.264a176.1,176.1,0,0,1,53.062,1.509c12.407,2.18,23.974,7.544,36.3,9.808,17.017,3.52,34.62,1.257,51.218-3.186,12.909-3.1,25.064-8.466,37.386-13.244,6.706-2.766,13.915-4.611,21.208-3.856,10.143.922,19.2,5.784,28.5,9.3,6.2,2.431,12.993,2.6,19.615,2.013a70.526,70.526,0,0,0,35.794-13.748C2009.493,4097.755,2011.84,4093.983,2014.1,4090.295Z" transform="translate(-1531.181 -3476.765)" fill="#7e4621" stroke="#7e4621" stroke-width="0.094"/>
        </g>
        <g id="Grupo_1178188" data-name="Grupo 1178188" transform="translate(230.112 57.501)">
          <path id="Trazado_113538" data-name="Trazado 113538" d="M228.517,0C218.1,0,212.955,8.4,208.824,15.15c-4.185,6.831-7.02,11.018-12.354,11.018s-8.164-4.187-12.34-11.018C180,8.4,174.856,0,164.442,0S148.88,8.4,144.749,15.15c-4.18,6.831-7.015,11.018-12.344,11.018s-8.159-4.187-12.34-11.018C115.934,8.4,110.791,0,100.377,0S84.82,8.4,80.693,15.15c-4.18,6.831-7.01,11.018-12.335,11.018S60.2,21.981,56.024,15.15C51.893,8.4,46.755,0,36.341,0S20.789,8.4,16.657,15.15c-4.18,6.831-7.01,11.018-12.335,11.018a4.361,4.361,0,0,0,0,8.721c10.409,0,15.552-8.4,19.683-15.155,4.175-6.826,7.01-11.013,12.335-11.013S44.5,12.908,48.675,19.734c4.131,6.752,9.274,15.155,19.683,15.155s15.552-8.4,19.678-15.15c4.18-6.831,7.01-11.018,12.34-11.018s8.159,4.187,12.34,11.018c4.131,6.747,9.274,15.15,19.688,15.15s15.557-8.4,19.693-15.15c4.175-6.831,7.01-11.018,12.344-11.018s8.159,4.187,12.34,11.018c4.126,6.747,9.274,15.15,19.688,15.15s15.567-8.4,19.7-15.15c4.185-6.831,7.02-11.018,12.349-11.018s8.169,4.187,12.354,11.018c4.131,6.747,9.279,15.15,19.7,15.15a4.361,4.361,0,0,0,0-8.721c-5.335,0-8.169-4.187-12.354-11.018C244.084,8.4,238.941,0,228.517,0Z" transform="translate(0 81.024)" fill="#f4c251"/>
          <path id="Trazado_113539" data-name="Trazado 113539" d="M228.517,0C218.1,0,212.955,8.4,208.824,15.15c-4.185,6.831-7.02,11.018-12.354,11.018s-8.164-4.187-12.34-11.018C180,8.4,174.856,0,164.442,0S148.88,8.4,144.749,15.15c-4.18,6.831-7.015,11.018-12.344,11.018s-8.159-4.187-12.34-11.018C115.934,8.4,110.791,0,100.377,0S84.82,8.4,80.693,15.15c-4.18,6.831-7.01,11.018-12.335,11.018S60.2,21.981,56.024,15.15C51.893,8.4,46.755,0,36.341,0S20.789,8.4,16.657,15.15c-4.18,6.831-7.01,11.018-12.335,11.018a4.361,4.361,0,0,0,0,8.721c10.409,0,15.552-8.4,19.683-15.155,4.175-6.826,7.01-11.013,12.335-11.013S44.5,12.908,48.675,19.734c4.131,6.752,9.274,15.155,19.683,15.155s15.552-8.4,19.678-15.15c4.18-6.831,7.01-11.018,12.34-11.018s8.159,4.187,12.34,11.018c4.131,6.747,9.274,15.15,19.688,15.15s15.557-8.4,19.693-15.15c4.175-6.831,7.01-11.018,12.344-11.018s8.159,4.187,12.34,11.018c4.126,6.747,9.274,15.15,19.688,15.15s15.567-8.4,19.7-15.15c4.185-6.831,7.02-11.018,12.349-11.018s8.169,4.187,12.354,11.018c4.131,6.747,9.279,15.15,19.7,15.15a4.361,4.361,0,0,0,0-8.721c-5.335,0-8.169-4.187-12.354-11.018C244.084,8.4,238.941,0,228.517,0Z" transform="translate(0 40.512)" fill="#f4c251"/>
          <path id="Trazado_126923" data-name="Trazado 126923" d="M228.517,0C218.1,0,212.955,8.4,208.824,15.15c-4.185,6.831-7.02,11.018-12.354,11.018s-8.164-4.187-12.34-11.018C180,8.4,174.856,0,164.442,0S148.88,8.4,144.749,15.15c-4.18,6.831-7.015,11.018-12.344,11.018s-8.159-4.187-12.34-11.018C115.934,8.4,110.791,0,100.377,0S84.82,8.4,80.693,15.15c-4.18,6.831-7.01,11.018-12.335,11.018S60.2,21.981,56.024,15.15C51.893,8.4,46.755,0,36.341,0S20.789,8.4,16.657,15.15c-4.18,6.831-7.01,11.018-12.335,11.018a4.361,4.361,0,0,0,0,8.721c10.409,0,15.552-8.4,19.683-15.155,4.175-6.826,7.01-11.013,12.335-11.013S44.5,12.908,48.675,19.734c4.131,6.752,9.274,15.155,19.683,15.155s15.552-8.4,19.678-15.15c4.18-6.831,7.01-11.018,12.34-11.018s8.159,4.187,12.34,11.018c4.131,6.747,9.274,15.15,19.688,15.15s15.557-8.4,19.693-15.15c4.175-6.831,7.01-11.018,12.344-11.018s8.159,4.187,12.34,11.018c4.126,6.747,9.274,15.15,19.688,15.15s15.567-8.4,19.7-15.15c4.185-6.831,7.02-11.018,12.349-11.018s8.169,4.187,12.354,11.018c4.131,6.747,9.279,15.15,19.7,15.15a4.361,4.361,0,0,0,0-8.721c-5.335,0-8.169-4.187-12.354-11.018C244.084,8.4,238.941,0,228.517,0Z" transform="translate(0 0)" fill="#f4c251"/>
        </g>
      </g>
    </g>
  </g>
</svg>
