<svg xmlns="http://www.w3.org/2000/svg" xmlns:xlink="http://www.w3.org/1999/xlink" width="106.211" height="106.211" viewBox="0 0 106.211 106.211">
  <defs>
    <filter id="Trazado_896985" x="0" y="0" width="106.211" height="106.211" filterUnits="userSpaceOnUse">
      <feOffset dy="3" input="SourceAlpha"/>
      <feGaussianBlur stdDeviation="3" result="blur"/>
      <feFlood flood-opacity="0.161"/>
      <feComposite operator="in" in2="blur"/>
      <feComposite in="SourceGraphic"/>
    </filter>
  </defs>
  <g id="Grupo_1178425" data-name="Grupo 1178425" transform="translate(-746.994 -4755)">
    <g id="Grupo_1178072" data-name="Grupo 1178072" transform="translate(755.994 4761)">
      <g transform="matrix(1, 0, 0, 1, -9, -6)" filter="url(#Trazado_896985)">
        <g id="Trazado_896985-2" data-name="Trazado 896985" transform="translate(9 6)" fill="#f4c251" opacity="0.859">
          <path d="M 44.10559844970703 86.71131896972656 C 38.35322189331055 86.71131896972656 32.77369689941406 85.58504486083984 27.52203559875488 83.36377716064453 C 22.44877433776855 81.21797180175781 17.89219856262207 78.14572906494141 13.97888565063477 74.23242950439453 C 10.06558609008789 70.31911468505859 6.993348598480225 65.76254272460938 4.847536087036133 60.68928146362305 C 2.626273393630981 55.43761825561523 1.499998450279236 49.85809326171875 1.499998450279236 44.10571670532227 C 1.499998450279236 38.35321807861328 2.626273393630981 32.7736930847168 4.847536087036133 27.52202987670898 C 6.993348598480225 22.44876861572266 10.06558609008789 17.89219284057617 13.97888565063477 13.9788932800293 C 17.89219856262207 10.06558036804199 22.44877433776855 6.993355751037598 27.52203559875488 4.847543239593506 C 32.77369689941406 2.626280784606934 38.35322189331055 1.500005722045898 44.10559844970703 1.500005722045898 C 49.85798645019531 1.500005722045898 55.4375 2.626280784606934 60.68915939331055 4.847543239593506 C 65.76243591308594 6.993355751037598 70.31900024414062 10.06558036804199 74.23230743408203 13.9788932800293 C 78.14562225341797 17.89219284057617 81.21784973144531 22.44876861572266 83.36366271972656 27.52202987670898 C 85.58492279052734 32.7736930847168 86.71119689941406 38.35321807861328 86.71119689941406 44.10559463500977 C 86.71119689941406 49.85809326171875 85.58492279052734 55.43761825561523 83.36366271972656 60.68928146362305 C 81.21784973144531 65.76254272460938 78.14562225341797 70.31911468505859 74.23230743408203 74.23242950439453 C 70.31900024414062 78.14572906494141 65.76243591308594 81.21797180175781 60.68915939331055 83.36377716064453 C 55.4375 85.58504486083984 49.85798645019531 86.71131896972656 44.10559844970703 86.71131896972656 Z" stroke="none"/>
          <path d="M 44.10559844970703 3 C 38.5550537109375 3 33.17214202880859 4.086410522460938 28.10636901855469 6.229057312011719 C 23.21189880371094 8.299240112304688 18.81558227539062 11.26351165771484 15.03955841064453 15.03955841064453 C 11.26351165771484 18.81558227539062 8.299240112304688 23.21189880371094 6.229057312011719 28.10636901855469 C 4.086410522460938 33.17214202880859 3 38.55505752563477 3 44.105712890625 C 3 49.65625381469727 4.086410522460938 55.03916931152344 6.229057312011719 60.10494232177734 C 8.299240112304688 64.99941253662109 11.26351165771484 69.39572906494141 15.03955841064453 73.1717529296875 C 18.81558227539062 76.94779968261719 23.21189880371094 79.91207122802734 28.10636901855469 81.98225402832031 C 33.17214202880859 84.12490081787109 38.5550537109375 85.21131134033203 44.10559844970703 85.21131134033203 C 49.65614318847656 85.21131134033203 55.03907012939453 84.12490081787109 60.10484313964844 81.98225402832031 C 64.99929809570312 79.91207122802734 69.39561462402344 76.94779968261719 73.17165374755859 73.1717529296875 C 76.94768524169922 69.39572906494141 79.91197204589844 64.99941253662109 81.98215484619141 60.10494232177734 C 84.12478637695312 55.03916931152344 85.21119689941406 49.65625381469727 85.21119689941406 44.10559844970703 C 85.21119689941406 38.55505752563477 84.12478637695312 33.17214202880859 81.98215484619141 28.10636901855469 C 79.91197204589844 23.21189880371094 76.94768524169922 18.81558227539062 73.17165374755859 15.03955841064453 C 69.39561462402344 11.26351165771484 64.99929809570312 8.299240112304688 60.10484313964844 6.229057312011719 C 55.03907012939453 4.086410522460938 49.65614318847656 3 44.10559844970703 3 M 44.10559844970703 0 C 68.46445465087891 0 88.21119689941406 19.74675750732422 88.21119689941406 44.10559844970703 L 88.21119689941406 44.105712890625 C 88.21119689941406 68.46455383300781 68.46445465087891 88.21131134033203 44.10559844970703 88.21131134033203 C 19.74675750732422 88.21131134033203 0 68.46455383300781 0 44.105712890625 L 0 44.10559844970703 C 0 19.74675750732422 19.74675750732422 0 44.10559844970703 0 Z" stroke="none" fill="#fff"/>
        </g>
      </g>
      <g id="Rectángulo_400907" data-name="Rectángulo 400907" transform="translate(0)" fill="none" stroke="#fff" stroke-width="3">
        <rect width="88.211" height="88.211" rx="44.106" stroke="none"/>
        <rect x="1.5" y="1.5" width="85.211" height="85.211" rx="42.606" fill="none"/>
      </g>
    </g>
    <g id="Grupo_1178122" data-name="Grupo 1178122" transform="translate(770.928 4777.034)">
      <path id="Trazado_1034615" data-name="Trazado 1034615" d="M28.1,14.418V54.186A2.993,2.993,0,0,0,31.118,57.2H53.31a2.993,2.993,0,0,0,3.018-3.018V37.675a3.032,3.032,0,0,0-3.373-3.018c-.355,0-.621.089-.976.089-6.569,0-11.984-6.214-11.984-13.937a17.626,17.626,0,0,1,.888-5.326A3.014,3.014,0,0,0,38.042,11.4H31.029A2.974,2.974,0,0,0,28.1,14.418" transform="translate(-2.696 -1.168)" fill="#c8d7ee"/>
      <path id="Trazado_1034616" data-name="Trazado 1034616" d="M44,31.107a12.114,12.114,0,0,0-2.929,4.7L33.881,57.2H31.218A2.993,2.993,0,0,1,28.2,54.186V14.418A2.993,2.993,0,0,1,31.218,11.4h7.013a3.039,3.039,0,0,1,2.841,4.083,14.915,14.915,0,0,0-.888,5.326A15,15,0,0,0,44,31.107" transform="translate(-2.707 -1.168)" fill="#b1cae9"/>
      <path id="Trazado_1034617" data-name="Trazado 1034617" d="M53.41,58.149H31.218A4.027,4.027,0,0,1,27.166,54.1V51.7a1.033,1.033,0,1,1,2.067,0v2.4a1.964,1.964,0,0,0,1.985,1.985H53.41A1.964,1.964,0,0,0,55.395,54.1V37.675a1.983,1.983,0,0,0-.665-1.461,2.052,2.052,0,0,0-1.51-.534,4.745,4.745,0,0,1-1.141.1,12.149,12.149,0,0,1-9.272-4.432,16.119,16.119,0,0,1-3.745-10.538,15.964,15.964,0,0,1,.956-5.7,2.048,2.048,0,0,0-.132-1.777,1.879,1.879,0,0,0-1.357-.914,1.034,1.034,0,0,1,.292-2.046,3.935,3.935,0,0,1,2.846,1.911,4.1,4.1,0,0,1,.282,3.564l0,.007a13.891,13.891,0,0,0-.817,4.952A14.053,14.053,0,0,0,44.374,30a10.113,10.113,0,0,0,7.7,3.712,2.726,2.726,0,0,0,.726-.058,1.033,1.033,0,0,1,.148-.026,4.119,4.119,0,0,1,3.164,1.053,4.053,4.053,0,0,1,1.345,2.994V54.1a4.027,4.027,0,0,1-4.052,4.052Z" transform="translate(-2.707 -1.168)"/>
      <path id="Trazado_1034618" data-name="Trazado 1034618" d="M49.541,56.923H48.508a1.034,1.034,0,0,1,0-2.067h1.033a1.034,1.034,0,0,1,0,2.067Zm-5.166,0H43.342a1.034,1.034,0,0,1,0-2.067h1.033a1.034,1.034,0,0,1,0,2.067Zm-5.166,0H38.176a1.034,1.034,0,0,1,0-2.067h1.033a1.034,1.034,0,0,1,0,2.067Zm-5.166,0H33.01a1.034,1.034,0,0,1,0-2.067h1.033a1.034,1.034,0,0,1,0,2.067Zm19.118-.513a1.033,1.033,0,0,1-1.034-1.034V54.343a1.034,1.034,0,0,1,2.067,0v1.033A1.034,1.034,0,0,1,53.161,56.41Zm0-5.166a1.033,1.033,0,0,1-1.034-1.034V49.177a1.034,1.034,0,0,1,2.067,0V50.21A1.034,1.034,0,0,1,53.161,51.244Zm0-5.166a1.033,1.033,0,0,1-1.034-1.034V44.011a1.034,1.034,0,0,1,2.067,0v1.033A1.034,1.034,0,0,1,53.161,46.078Zm-.832-4.336h-.016c-.369-.006-.742-.025-1.108-.058a1.034,1.034,0,0,1,.185-2.059c.316.028.637.045.955.05a1.034,1.034,0,0,1-.015,2.067ZM47.3,40.716a1.031,1.031,0,0,1-.388-.076c-.339-.138-.679-.29-1.01-.453a1.033,1.033,0,0,1,.912-1.855c.287.141.581.273.875.392a1.034,1.034,0,0,1-.389,1.991Zm-4.359-2.727a1.03,1.03,0,0,1-.685-.26c-.272-.241-.54-.494-.8-.753a1.033,1.033,0,0,1,1.465-1.458c.228.229.465.452.7.665a1.034,1.034,0,0,1-.686,1.807Zm-3.288-3.958a1.033,1.033,0,0,1-.884-.5c-.188-.308-.37-.627-.541-.947a1.033,1.033,0,0,1,1.823-.974c.153.286.316.571.483.847a1.034,1.034,0,0,1-.882,1.571Z" transform="translate(-3.167 -3.493)"/>
      <path id="Trazado_1034619" data-name="Trazado 1034619" d="M32.328,4.018V43.786A2.993,2.993,0,0,1,29.31,46.8H7.118A2.993,2.993,0,0,1,4.1,43.786V27.364a3.032,3.032,0,0,1,3.373-3.018c.355,0,.621.089.976.089,6.569,0,11.984-6.214,11.984-13.937a17.626,17.626,0,0,0-.888-5.326A2.957,2.957,0,0,1,22.209,1h7.013a3.069,3.069,0,0,1,3.107,3.018" fill="#e3eaf6"/>
      <path id="Trazado_1034620" data-name="Trazado 1034620" d="M32.328,4.029V43.8a2.993,2.993,0,0,1-3.018,3.018H7.118A2.993,2.993,0,0,1,4.1,43.8v-.976A28.326,28.326,0,0,0,29.221,14.77V4.118A2.993,2.993,0,0,0,26.2,1.1h3.2a2.9,2.9,0,0,1,2.929,2.929" transform="translate(0 -0.011)" fill="#c8d7ee"/>
      <g id="Grupo_1178121" data-name="Grupo 1178121" transform="translate(4.1 1)">
        <path id="Trazado_1034621" data-name="Trazado 1034621" d="M22.209-.033h7.013a4.1,4.1,0,0,1,4.14,4.052V43.786a4.027,4.027,0,0,1-4.052,4.052H7.118a4.027,4.027,0,0,1-4.052-4.052V27.364a4.017,4.017,0,0,1,1.227-2.917A4.1,4.1,0,0,1,7.156,23.3c.123,0,.247.005.37.016a4.483,4.483,0,0,1,.581.054,2.446,2.446,0,0,0,.342.034,10.116,10.116,0,0,0,7.673-3.714A14.01,14.01,0,0,0,19.4,10.5a16.486,16.486,0,0,0-.825-4.968,4.018,4.018,0,0,1,.332-3.766A3.944,3.944,0,0,1,22.209-.033Zm7.1,45.8a1.964,1.964,0,0,0,1.985-1.985V4.018a2.033,2.033,0,0,0-2.073-1.985H22.209a1.883,1.883,0,0,0-1.573.865,1.934,1.934,0,0,0-.142,1.862,1.035,1.035,0,0,1,.038.1,18.554,18.554,0,0,1,.936,5.637c0,8.255-5.84,14.97-13.017,14.97a4.3,4.3,0,0,1-.634-.055,2.446,2.446,0,0,0-.342-.034q-.052,0-.1-.005c-.071-.007-.143-.011-.214-.011a1.99,1.99,0,0,0-2.022,2V43.786a1.964,1.964,0,0,0,1.985,1.985Z" transform="translate(-4.1 -1)"/>
        <path id="Trazado_1034622" data-name="Trazado 1034622" d="M29.061,44.659H28.028a1.034,1.034,0,1,1,0-2.067h1.033a1.034,1.034,0,0,1,0,2.067Zm-5.166,0H22.862a1.034,1.034,0,1,1,0-2.067h1.033a1.034,1.034,0,0,1,0,2.067Zm-5.166,0H17.7a1.034,1.034,0,0,1,0-2.067h1.033a1.034,1.034,0,0,1,0,2.067Zm-5.166,0H12.53a1.034,1.034,0,0,1,0-2.067h1.033a1.034,1.034,0,0,1,0,2.067Zm-5.166,0H8.2a1.033,1.033,0,0,1-1.033-1.034v-.836a1.034,1.034,0,1,1,2.067,0v.23a1.034,1.034,0,0,1-.837,1.64Zm20.664-3.115a1.034,1.034,0,0,1-1.033-1.034V39.477a1.033,1.033,0,0,1,2.067,0V40.51A1.034,1.034,0,0,1,29.061,41.544ZM8.2,39.689a1.033,1.033,0,0,1-1.033-1.034V37.623a1.034,1.034,0,1,1,2.067,0v1.033A1.033,1.033,0,0,1,8.2,39.689Zm20.861-3.312a1.034,1.034,0,0,1-1.033-1.034V34.311a1.033,1.033,0,0,1,2.067,0v1.033A1.034,1.034,0,0,1,29.061,36.378ZM8.2,34.523A1.033,1.033,0,0,1,7.166,33.49V32.457a1.034,1.034,0,1,1,2.067,0V33.49A1.033,1.033,0,0,1,8.2,34.523Zm20.861-3.312a1.034,1.034,0,0,1-1.033-1.033V29.145a1.033,1.033,0,1,1,2.067,0v1.033A1.034,1.034,0,0,1,29.061,31.212ZM8.821,29.568H8.411a1.033,1.033,0,1,1,0-2.067h.411c.192,0,.386,0,.577-.013a1.033,1.033,0,1,1,.092,2.065C9.268,29.563,9.043,29.568,8.821,29.568Zm4.664-.8a1.034,1.034,0,0,1-.345-2.008c.3-.106.6-.224.891-.352A1.034,1.034,0,0,1,14.86,28.3c-.338.148-.684.284-1.03.407A1.032,1.032,0,0,1,13.486,28.766Zm4.472-2.535A1.034,1.034,0,0,1,17.3,24.4c.247-.2.493-.416.729-.635a1.033,1.033,0,0,1,1.407,1.514c-.268.249-.547.492-.828.722A1.029,1.029,0,0,1,17.958,26.231Zm11.1-.185a1.034,1.034,0,0,1-1.033-1.033V23.979a1.033,1.033,0,0,1,2.067,0v1.033A1.034,1.034,0,0,1,29.061,26.046ZM21.388,22.4a1.034,1.034,0,0,1-.864-1.6c.176-.27.348-.549.509-.83A1.034,1.034,0,1,1,22.825,21c-.181.315-.374.628-.572.931A1.033,1.033,0,0,1,21.388,22.4Zm7.673-1.516a1.034,1.034,0,0,1-1.033-1.034V18.813a1.033,1.033,0,1,1,2.067,0v1.033A1.034,1.034,0,0,1,29.061,20.88Zm-5.487-3.147a1.034,1.034,0,0,1-.988-1.339c.1-.309.184-.626.264-.941a1.034,1.034,0,0,1,2,.5c-.088.351-.187.7-.294,1.048A1.034,1.034,0,0,1,23.573,17.733Zm5.487-2.019a1.034,1.034,0,0,1-1.033-1.034V13.647a1.033,1.033,0,1,1,2.067,0V14.68A1.034,1.034,0,0,1,29.061,15.714Zm-4.629-3.06h-.039a1.033,1.033,0,0,1-.995-1.071c.009-.236.013-.475.013-.712q0-.135,0-.269a1.034,1.034,0,0,1,2.067-.027q0,.148,0,.3c0,.262,0,.527-.015.788A1.034,1.034,0,0,1,24.431,12.654Zm4.629-2.106a1.034,1.034,0,0,1-1.033-1.033V8.481a1.033,1.033,0,1,1,2.067,0V9.514A1.034,1.034,0,0,1,29.061,10.548ZM23.952,7.525a1.034,1.034,0,0,1-1-.795c-.075-.315-.16-.63-.253-.934a1.033,1.033,0,1,1,1.977-.6c.105.346.2.7.287,1.059a1.034,1.034,0,0,1-1.006,1.273Zm4.357-1.392H27.276a1.033,1.033,0,1,1,0-2.067h1.033a1.033,1.033,0,1,1,0,2.067Z" transform="translate(-4.561 -1.461)"/>
      </g>
    </g>
  </g>
</svg>
