<svg id="Grupo_1178189" data-name="Grupo 1178189" xmlns="http://www.w3.org/2000/svg" width="91" height="91" viewBox="0 0 91 91">
  <g id="Elipse_11662" data-name="Elipse 11662" fill="#f4c251" stroke="#bc9a7c" stroke-linecap="round" stroke-width="2" stroke-dasharray="8">
    <circle cx="45.5" cy="45.5" r="45.5" stroke="none"/>
    <circle cx="45.5" cy="45.5" r="44.5" fill="none"/>
  </g>
  <g id="Fill_out_line" data-name="Fill out line" transform="translate(18.116 26.388)">
    <path id="Trazado_900271" data-name="Trazado 900271" d="M26.018,233.837v6.431H38.88v-3.675a34.815,34.815,0,0,0,15.566,3.675h3.536a34.845,34.845,0,0,0,14.4-3.12l2.221-1.009a1.347,1.347,0,0,0,.749-1.553l-.255-1.017a1.344,1.344,0,0,0-1.864-.9,43.782,43.782,0,0,1-18.118,3.924H51.877A18.02,18.02,0,0,1,50,236.5a18.236,18.236,0,0,1-6.982-2.2,18.245,18.245,0,0,0-8.863-2.3h-6.3A1.837,1.837,0,0,0,26.018,233.837Z" transform="translate(-21.547 -215.826)" fill="gray"/>
    <path id="Trazado_900272" data-name="Trazado 900272" d="M102.59,102.1a4.817,4.817,0,0,0,.634,2.389l1.747,3.057.775,1.356,3.675,6.431,6.431-2.756,7.511-1.818-1.1-.124q-.734-.081-1.454-.223a17.582,17.582,0,0,1-10.434-6.391c-.091-.115-.183-.23-.278-.342a17.373,17.373,0,0,0-1.831-1.9l-2.4-2.149a1.837,1.837,0,0,0-2.931.687A4.817,4.817,0,0,0,102.59,102.1Z" transform="translate(-78.307 -98.238)" fill="#bc8d5d"/>
    <path id="Trazado_900273" data-name="Trazado 900273" d="M189.86,149.255l5.512.919,1.608-2.01,5.069-6.337a17.626,17.626,0,0,1-2.965-2.965c-.091-.115-.183-.23-.278-.342l-4.352,5.223Z" transform="translate(-167.015 -133.081)" fill="#cc9f74"/>
    <path id="Trazado_900274" data-name="Trazado 900274" d="M32,126.431c0,.077,0,.154,0,.231a23.376,23.376,0,0,0,.9,6.2h8.133c.323,0,.644.008.966.026a18.231,18.231,0,0,1,7.9,2.27,18.216,18.216,0,0,0,6.982,2.2,18.008,18.008,0,0,0,1.881.1H62a43.783,43.783,0,0,0,18.119-3.925,2.51,2.51,0,0,0-.547-4.747,11.135,11.135,0,0,0-5.109.176,26.317,26.317,0,0,1-15.038-.356L32.9,120a23.347,23.347,0,0,0-.843,4.792Q32,125.61,32,126.431Z" transform="translate(-28.428 -116.688)" fill="#bc8d5d"/>
    <rect id="Rectángulo_404512" data-name="Rectángulo 404512" width="8.268" height="3.675" transform="translate(8.146 33.629)" fill="#4d4d4d"/>
    <path id="Trazado_900275" data-name="Trazado 900275" d="M127,384.973h13.917a12.175,12.175,0,0,0,7.86-2.877l1.358-1.148H126.539Z" transform="translate(-107.828 -347.669)" fill="#4d4d4d"/>
    <path id="Trazado_900276" data-name="Trazado 900276" d="M330.093,248h0a25.974,25.974,0,0,1,10.549,2.239l3.231,1.436-7.35,2.756-8.268-.919-.115-.461A4.7,4.7,0,0,1,330.093,248Z" transform="translate(-324.703 -229.989)" fill="#a1764a"/>
    <path id="Trazado_900277" data-name="Trazado 900277" d="M173.63,210.545a2.526,2.526,0,0,0,.427,1.408l1.966,2.949,2.94,4.409L180,220.862h12.749a12.164,12.164,0,0,0,5.433-1.282l1.382-.691-3.8-.622a13.054,13.054,0,0,1-9.564-7.044q-.119-.239-.261-.466A5.83,5.83,0,0,0,180.988,208h-4.815a2.543,2.543,0,0,0-2.542,2.544Z" transform="translate(-162.664 -194.582)" fill="#bc8d5d"/>
    <path id="Trazado_900278" data-name="Trazado 900278" d="M128,254.99a7.493,7.493,0,0,0,1.027,3.787,2.359,2.359,0,0,0,2.035,1.166h7.376a4.594,4.594,0,0,1,3.675,1.837,4.59,4.59,0,0,0,3.675,1.837,16.669,16.669,0,0,0,6.2-1.194l4.887-1.954a7.332,7.332,0,0,1,2.73-.526h7.988a1.621,1.621,0,0,0,1.62-1.62,4.81,4.81,0,0,0-2.66-4.3,4.733,4.733,0,0,0-1.046-.379,4.817,4.817,0,0,0-1.1-.129h-4.454a9.671,9.671,0,0,0-4.974,1.377A9.687,9.687,0,0,1,150,256.268h-2.023a17.057,17.057,0,0,1-6.834-1.429l-8.4-3.674a1.81,1.81,0,0,1-.279-3.165l-1.128.752a7.5,7.5,0,0,0-2.518,2.828q-.138.269-.251.547A7.507,7.507,0,0,0,128,254.99Z" transform="translate(-127.076 -229.989)" fill="#bc8d5d"/>
    <path id="Trazado_900279" data-name="Trazado 900279" d="M261.44,239.35l6.431,2.756a12.374,12.374,0,0,1,9.481-5.485,13.056,13.056,0,0,1-3.276-4.155q-.119-.239-.261-.466h-.673a12.38,12.38,0,0,0-9.244,4.145q-.345.388-.659.806Z" transform="translate(-250.538 -215.826)" fill="#cc9f74"/>
    <path id="Trazado_900280" data-name="Trazado 900280" d="M160.422,353.841h0a1.841,1.841,0,0,1-1.834,1.841l-7.923.029a7.35,7.35,0,0,0-2.712.529l-3.2,1.284a25.342,25.342,0,0,1-9.445,1.826H134.24a4.593,4.593,0,0,1-3.675-1.837h0a4.593,4.593,0,0,0-3.675-1.837h-1.378v3.675H120v-5.512A1.837,1.837,0,0,1,121.837,352h6.89a4.593,4.593,0,0,1,3.675,1.837h0a4.593,4.593,0,0,0,3.675,1.837h0a16.7,16.7,0,0,0,6.2-1.194l4.887-1.955a7.349,7.349,0,0,1,2.73-.526h8.687a1.841,1.841,0,0,1,1.841,1.841Z" transform="translate(-117.366 -322.046)" fill="gray"/>
    <path id="Trazado_900281" data-name="Trazado 900281" d="M68.042,110.632a.428.428,0,0,0,.238-.493l-.255-1.018a.428.428,0,0,0-.592-.286,44.468,44.468,0,0,1-17.257,3.99l-.051-1.837a42.638,42.638,0,0,0,16.548-3.826,1.592,1.592,0,0,0-.347-3.01,10.258,10.258,0,0,0-4.687.161,27.157,27.157,0,0,1-15.563-.369l-25.6-8.3a22.5,22.5,0,0,0-.574,3.82l.932.207a10.883,10.883,0,0,1,4.727,2.371l-1.2,1.392a9.04,9.04,0,0,0-3.926-1.969l-.574-.128a22.478,22.478,0,0,0,.625,4.859l-1.786.433a24.372,24.372,0,0,1,.252-12.412.919.919,0,0,1,1.167-.622l20.777,6.739-1.413-2.473a5.7,5.7,0,0,1-.345-4.972,2.756,2.756,0,0,1,4.4-1.031L45.936,94a18.553,18.553,0,0,1,2.218,2.364,16.771,16.771,0,0,0,11.268,6.269l.94.106q.4-.1.795-.2a12.107,12.107,0,0,1,5.531-.191,3.424,3.424,0,0,1,2.3,5.073,2.258,2.258,0,0,1,.825,1.252l.255,1.018A2.265,2.265,0,0,1,68.8,112.3l-2.22,1.009a35.812,35.812,0,0,1-6.63,2.259l-.419-1.789a33.97,33.97,0,0,0,6.289-2.143ZM44.711,95.375l-2.4-2.148a.919.919,0,0,0-1.465.344,3.873,3.873,0,0,0,.235,3.378l1.866,3.265L45.949,96.6a16.7,16.7,0,0,0-1.238-1.23Zm2.436,2.663-2.836,3.4,2.332.756c.2.064.4.125.594.184l1.882-2.352a18.359,18.359,0,0,1-1.972-1.991Zm3.419,3.124-1.374,1.718a25.288,25.288,0,0,0,5.69.555A18.729,18.729,0,0,1,50.566,101.161Z" transform="translate(-15.363 -91.155)"/>
    <path id="Trazado_900282" data-name="Trazado 900282" d="M112.926,208.674a8.433,8.433,0,0,1,2.827-3.175l1.125-.75,0,0a.914.914,0,0,1,.51-.154h.009a26.888,26.888,0,0,1,5.048.48A3.461,3.461,0,0,1,125.509,200h4.815a6.747,6.747,0,0,1,6.035,3.73,12.087,12.087,0,0,0,8.08,6.386c.145-.006.289-.01.434-.01h4.454a5.758,5.758,0,0,1,2.562.6,5.7,5.7,0,0,1,3.167,5.124,2.523,2.523,0,0,1-.291,1.179,2.755,2.755,0,0,1,.133,4.466h0l-1.358,1.148a13.11,13.11,0,0,1-8.453,3.094H114.634a.919.919,0,0,1-.919-.919v-5.512a2.739,2.739,0,0,1,.435-1.484,3.269,3.269,0,0,1-.993-1.056A8.378,8.378,0,0,1,112.926,208.674Zm4.58-1.578a.874.874,0,0,0,.531.739l4.6,2.012,1.33-1.773q.121-.162.247-.319l-.309-.463a25.053,25.053,0,0,0-6.186-.859.885.885,0,0,0-.212.663Zm12.818-5.259h-4.815a1.624,1.624,0,0,0-1.351,2.525l1.338,2.007a13.4,13.4,0,0,1,7.78-3.544c-.075-.056-.15-.111-.228-.163a4.894,4.894,0,0,0-2.723-.825Zm4.413,2.756H134.6a11.515,11.515,0,0,0-9.168,4.584l-1.07,1.427,2.068.9a16.144,16.144,0,0,0,2.747.92,13.238,13.238,0,0,1,7.643-4.78A14.028,14.028,0,0,1,134.737,204.593Zm3.775,4.648a11.411,11.411,0,0,0-7.216,3.541q.8.079,1.6.079h2.023a8.753,8.753,0,0,0,4.5-1.247,10.581,10.581,0,0,1,1.6-.784,13.88,13.88,0,0,1-2.509-1.59Zm12.555,3.112a3.912,3.912,0,0,0-1.74-.411h-4.454a8.753,8.753,0,0,0-4.5,1.247,10.591,10.591,0,0,1-5.448,1.509H132.9a17.864,17.864,0,0,1-7.2-1.507l-8.4-3.673a2.688,2.688,0,0,1-1.513-1.686,6.588,6.588,0,0,0-1.225,1.677c-.078.152-.147.307-.212.462a14.835,14.835,0,0,1,7.269,6.564h1.742a5.538,5.538,0,0,1,4.41,2.2,3.693,3.693,0,0,0,2.94,1.47,15.709,15.709,0,0,0,5.86-1.128l4.887-1.955a8.232,8.232,0,0,1,3.071-.591h7.988a.7.7,0,0,0,.7-.7,3.871,3.871,0,0,0-2.151-3.481Zm-5.98,11.532a11.272,11.272,0,0,0,6.139-1.823l-5.924.022a6.4,6.4,0,0,0-2.373.463l-3.2,1.284-.141.055Zm-24.023,0h3.7c-.106-.118-.209-.24-.3-.368a3.692,3.692,0,0,0-2.94-1.47h-.459Zm-5.512,0h3.675V221.13a.919.919,0,0,1,.919-.919h1.378a5.539,5.539,0,0,1,4.41,2.2,3.692,3.692,0,0,0,2.94,1.47h1.072a24.315,24.315,0,0,0,9.1-1.76l3.2-1.283a8.231,8.231,0,0,1,3.051-.6l7.923-.029a.922.922,0,1,0,0-1.844h-8.687a6.4,6.4,0,0,0-2.388.46l-4.887,1.955a17.538,17.538,0,0,1-6.542,1.26,5.538,5.538,0,0,1-4.41-2.2,3.693,3.693,0,0,0-2.94-1.47h-6.89a.92.92,0,0,0-.919.919Zm-.809-8.062a1.445,1.445,0,0,0,1.242.712h3.493a13,13,0,0,0-5.6-4.765A6.551,6.551,0,0,0,114.744,215.824Z" transform="translate(-112 -187.501)"/>
  </g>
</svg>
